<?xml version="1.0" encoding="UTF-8"?>
<svg width="50px" height="50px" viewBox="0 0 50 50" version="1.1" xmlns="http://www.w3.org/2000/svg" xmlns:xlink="http://www.w3.org/1999/xlink">
    <!-- Generator: Sketch 43.2 (39069) - http://www.bohemiancoding.com/sketch -->
    <title>ico_ins</title>
    <desc>Created with Sketch.</desc>
    <defs></defs>
    <g id="トップページと共通パーツ" stroke="none" stroke-width="1" fill="none" fill-rule="evenodd">
        <g id="アートボード-2" fill-rule="nonzero" fill="#4C4948">
            <path d="M24.8529412,12.2058824 C17.922309,12.2058824 12.3039216,17.8242698 12.3039216,24.754902 C12.3039216,31.6855341 17.922309,37.3039216 24.8529412,37.3039216 C31.7835733,37.3039216 37.4019608,31.6855341 37.4019608,24.754902 C37.391164,17.8287469 31.7790962,12.2166792 24.8529412,12.2058824 Z M24.8529412,32.7941176 C20.413005,32.7941176 16.8137255,29.1948382 16.8137255,24.754902 C16.8137255,20.3149657 20.413005,16.7156863 24.8529412,16.7156863 C29.2928774,16.7156863 32.8921569,20.3149657 32.8921569,24.754902 C32.8706988,29.1859195 29.2839587,32.7726596 24.8529412,32.7941176 Z" id="Shape"></path>
            <circle id="Oval" cx="37.8921569" cy="11.9117647" r="2.84313725"></circle>
            <path d="M45.245098,4.55882353 C42.5126703,1.86007638 38.7891685,0.406137578 34.9509804,0.539215686 L14.7058824,0.539215686 C6.17647059,0.539215686 0.490196078,6.2254902 0.490196078,14.754902 L0.490196078,34.8529412 C0.345911353,38.7698501 1.83764904,42.5702294 4.60784314,45.3431373 C7.36949898,47.9120909 11.034047,49.2862964 14.8039216,49.1666667 L34.8039216,49.1666667 C38.6042134,49.2931528 42.3017653,47.9197764 45.0980392,45.3431373 C47.8140479,42.5818566 49.2686428,38.8211967 49.1176471,34.9509804 L49.1176471,14.7058824 C49.2381509,10.9413429 47.8430698,7.28587716 45.245098,4.55882353 L45.245098,4.55882353 Z M44.6568627,34.9509804 C44.6568627,37.9901961 43.7745098,40.4411765 42.0098039,42.1078431 C40.0448057,43.8531279 37.4787926,44.7670504 34.8529412,44.6568627 L14.8529412,44.6568627 C12.2270897,44.7670504 9.66107669,43.8531279 7.69607843,42.1078431 C5.86327059,40.1504949 4.90739588,37.5306901 5.04901961,34.8529412 L5.04901961,14.7058824 C4.9286689,12.0606801 5.88343392,9.4792784 7.69607843,7.54901961 C9.65181866,5.78814532 12.2244086,4.87188041 14.8529412,5 L35.0490196,5 C37.6942218,4.87964929 40.2756236,5.83441432 42.2058824,7.64705882 C43.9646285,9.57113945 44.912875,12.0997967 44.8529412,14.7058824 L44.8529412,34.9019608 L44.6568627,34.9509804 Z" id="Shape"></path>
        </g>
    </g>
</svg>