<svg xmlns="http://www.w3.org/2000/svg" viewBox="0 0 265.4 34.21"><defs><style>.cls-1{fill:#fff;}</style></defs><title>logo_footer</title><g id="レイヤー_2" data-name="レイヤー 2"><g id="レイヤー_1-2" data-name="レイヤー 1"><path class="cls-1" d="M94.27,22.7c1,0,1.61-.62,1.61-1.74a5,5,0,0,0-.7-2.28A13.38,13.38,0,0,0,91,14.25a.82.82,0,0,0-1.15,0,1,1,0,0,0,0,1.25,12.1,12.1,0,0,1,2.92,5.42C93,22.1,93.5,22.7,94.27,22.7Z"/><path class="cls-1" d="M87.77,8.77a.84.84,0,0,0-1.34.06l-1.09,1.48H84.09V5.2c.92-.42,1.34-.82,1.34-1.26,0-.93-1.48-1.06-2.92-1.06a1.09,1.09,0,0,0-.33,0c-.34,0-.73.23-.73.87v6.54H77.57a.9.9,0,0,0-.81.34.65.65,0,0,0-.05.62,1,1,0,0,0,1,.63h3.55a39.86,39.86,0,0,1-5,12.56.82.82,0,0,0,.17,1.15,1,1,0,0,0,.57.21.87.87,0,0,0,.72-.43,40.21,40.21,0,0,0,3.81-6.84V30.61a.85.85,0,0,0,.92.9h.78a.86.86,0,0,0,.93-.9V16.78a11,11,0,0,1,2,3.37c.27.88.79,1.4,1.4,1.4A1.41,1.41,0,0,0,89.09,20,4,4,0,0,0,88,17.4a15.76,15.76,0,0,0-3.92-3V11.9H88.2a1,1,0,0,0,1-.66l0-.13a1.07,1.07,0,0,0-.21-.94A13.91,13.91,0,0,0,87.77,8.77Z"/><path class="cls-1" d="M104.32,8.56a.9.9,0,0,0-.63-.28.85.85,0,0,0-.69.4l-1.19,1.64h-1V5.56c.95-.36,1.37-.73,1.37-1.19,0-1-1.67-1.16-3.15-1.21a.86.86,0,0,0-.93.9v6.26H90.25a.9.9,0,0,0-.78.33.67.67,0,0,0,0,.66,1,1,0,0,0,1,.59h7.8V27.28c0,.12,0,.5-1,.5a41.79,41.79,0,0,1-4.44-.25h-.13a.74.74,0,0,0-.83.72.88.88,0,0,0,.84.93,18.39,18.39,0,0,1,3,.61,1.42,1.42,0,0,1,1,.78.89.89,0,0,0,.86.68h.09c2.77-.13,3.36-1.73,3.36-3V11.9h4c.67,0,.88-.38.91-.5a.94.94,0,0,0-.07-1.08A22.92,22.92,0,0,0,104.32,8.56ZM97.47,30.82h0Z"/><path class="cls-1" d="M137.8,24.5a35,35,0,0,1-12.58-11.57h10.94a.93.93,0,0,0,.89-.43.9.9,0,0,0,0-1.12,23,23,0,0,0-1.69-1.9.89.89,0,0,0-.66-.32.81.81,0,0,0-.67.38l-1.45,1.81h-8.1V5.78c1-.36,1.47-.73,1.47-1.19,0-.74-1-1.11-3.27-1.18h-.11a.83.83,0,0,0-.85.87v7.07H110a.9.9,0,0,0-.79.34.56.56,0,0,0-.06.52.9.9,0,0,0,1,.72h10.41A38.33,38.33,0,0,1,109,26.75a.87.87,0,0,0-.44.6.74.74,0,0,0,.19.6.93.93,0,0,0,1.23.17,36.84,36.84,0,0,0,11.67-11.6V30.64a.82.82,0,0,0,.89.87h.95a.83.83,0,0,0,.93-.87V15.12a39,39,0,0,0,11.29,12.07.9.9,0,0,0,1.25-.26,7.09,7.09,0,0,1,1-1.1.84.84,0,0,0,.31-.72A.81.81,0,0,0,137.8,24.5Z"/><path class="cls-1" d="M152.34,7.58h4.89V9.82H149.4a.87.87,0,0,0-.78.33.68.68,0,0,0,0,.67,1,1,0,0,0,.94.59h7.7V13.9H152a.9.9,0,0,0-.82.38.6.6,0,0,0,0,.61,1,1,0,0,0,.94.59h5.12V18h-6.07a.87.87,0,0,0-.82.36.64.64,0,0,0,0,.64,1,1,0,0,0,.94.59h5.94v2.49h-7.47a.86.86,0,0,0-.81.39.63.63,0,0,0,0,.66,1.06,1.06,0,0,0,.93.54h7.31v3.08a.86.86,0,0,0,.93.9H159a.84.84,0,0,0,.89-.9V23.64h8.68a1,1,0,0,0,.91-.5.89.89,0,0,0-.12-1.1,11.74,11.74,0,0,0-1.2-1.27l-.18-.15-.12-.1a.77.77,0,0,0-.53-.23.81.81,0,0,0-.67.38l-1.19,1.38h-5.59V19.56h7.38a1,1,0,0,0,.91-.43,1,1,0,0,0-.19-1.18,15.09,15.09,0,0,0-1.31-1.15.93.93,0,0,0-.7-.23.9.9,0,0,0,.22-.64V11.4h2.57a.93.93,0,0,0,.93-.56,1.06,1.06,0,0,0-.07-1c-.17-.26-.37-.52-.58-.81l-.38-.52a.8.8,0,0,0-1.39.06l-.77,1.27h-.32V7.9l.61-.37a.74.74,0,0,0,.43-.66c0-.33-.21-.79-1.75-1.9a.87.87,0,0,0-1.29.11l-.76.91h-3.56V5c1-.33,1.37-.66,1.37-1.1,0-.74-1-1.11-3.11-1.18a.85.85,0,0,0-1,.87V6h-5a.9.9,0,0,0-.81.34.66.66,0,0,0,0,.66A1,1,0,0,0,152.34,7.58Zm7.59,2.25V7.58h3.67V9.82Zm0,4.08V11.4h3.67V13.9Zm4.6,2.92h.78l.21,0-.07.08-1,1.09h-4.49V15.48h3.67v.44A.84.84,0,0,0,164.53,16.82Z"/><path class="cls-1" d="M169.21,28h0c-2.19.17-4.35.25-6.41.25-7.28,0-12.46-1.23-15.41-3.65a25.11,25.11,0,0,0,2.35-8.14l.71-.38a.82.82,0,0,0,.47-.69c0-.35-.26-.77-1.65-2a.89.89,0,0,0-1.31.11l-.79.92h-1.84a60.72,60.72,0,0,0,3.54-6.86l.81-.37a.79.79,0,0,0,.52-.71c0-.18,0-.6-1.64-2a.85.85,0,0,0-1.32,0l-.73.83h-5.57a.9.9,0,0,0-.78.33.65.65,0,0,0-.06.62,1,1,0,0,0,.93.63h5.1a52.05,52.05,0,0,1-4.75,9,.83.83,0,0,0-.11.77.79.79,0,0,0,.57.47l.68.26a1,1,0,0,0,1.14-.4c.25-.36.47-.68.66-1l0-.07H147a25.06,25.06,0,0,1-1.57,6.55,18.49,18.49,0,0,1-2-3.87.83.83,0,0,0-.78-.59.9.9,0,0,0-.3.05.88.88,0,0,0-.59,1.13,17.25,17.25,0,0,0,2.72,5.34A18.07,18.07,0,0,1,140,30.19c-.57.54-.3,1-.15,1.15a.94.94,0,0,0,.7.34.92.92,0,0,0,.53-.18,15.87,15.87,0,0,0,5.21-5c3.4,2.81,8.87,4.18,16.67,4.18h5.56a1,1,0,0,0,1-.64,4.27,4.27,0,0,1,.41-.91.76.76,0,0,0,.11-.81A.8.8,0,0,0,169.21,28Z"/><path class="cls-1" d="M201.14,27.38A32.49,32.49,0,0,1,189.66,23h11.07a1,1,0,0,0,.85-.38.84.84,0,0,0-.15-1.19,17.21,17.21,0,0,0-1.57-1.3,1.12,1.12,0,0,0-.3-.15,3.32,3.32,0,0,0,.86-.2,1.61,1.61,0,0,0,1-1.22.81.81,0,0,0-.57-1c-.12-.07-.53-.45-.53-2.11v-.39a.79.79,0,0,0-.52-.92.8.8,0,0,0-1.13.73,8.79,8.79,0,0,1-.43,2.53c0,.1-.15.39-.9.39s-.74-.24-.74-.38V12.75l.45-.28a.72.72,0,0,0,.43-.63c0-.25-.12-.59-1.49-1.56a.91.91,0,0,0-1.26.09l-.14.14a1.65,1.65,0,0,0,.2-.85,2.89,2.89,0,0,0-1.59-2.27h7.2a1,1,0,0,0,.89-.43.84.84,0,0,0-.07-1.14,15.51,15.51,0,0,0-1.45-1.48.85.85,0,0,0-1.29.12l-1.09,1.34H191c.14-.26.28-.55.42-.87.73-.17,1.38-.41,1.38-1s-.74-1-2.55-1.33a.85.85,0,0,0-1.08.61,16.65,16.65,0,0,1-4,6.44,1,1,0,0,0-.28.73.47.47,0,0,0,.16.32.92.92,0,0,0,1.25.12A17.49,17.49,0,0,0,190,7.39h.22A4.37,4.37,0,0,1,192,10.05a1.29,1.29,0,0,0,.46.8h-3.28l-.39-.18c-.31-.15-.59-.28-.85-.36a.78.78,0,0,0-1.12.78v2.24a6.52,6.52,0,0,1-.8,3.23.79.79,0,0,0-.78-.61.94.94,0,0,0-.26,0c-1.66.35-3.08.61-4.42.83V13.27h4.17a1,1,0,0,0,.85-.35.87.87,0,0,0-.1-1.2c-.33-.34-.72-.72-1.18-1.15a.89.89,0,0,0-1.28.07l-.93,1h-7.66a1.38,1.38,0,0,0-.36,0,17.93,17.93,0,0,0,3.82-4.34h.37A4.62,4.62,0,0,1,179.71,10a1.45,1.45,0,0,0,2.89-.18,3.15,3.15,0,0,0-1.52-2.43h5A1.1,1.1,0,0,0,187,7a.93.93,0,0,0-.12-1.23,11.31,11.31,0,0,0-1.2-1.29.87.87,0,0,0-1.3.12l-1,1.24H178.8c.13-.28.26-.58.39-.89.77-.14,1.52-.36,1.52-1s-.71-1-2.71-1.39a.85.85,0,0,0-1.08.61,21.48,21.48,0,0,1-4.8,8.06.93.93,0,0,0-.35.66.66.66,0,0,0,.22.48.88.88,0,0,0,1.24.06l.38-.29a.77.77,0,0,0,0,.52,1,1,0,0,0,1,.63H178v3.91c-1.68.21-3.09.35-4.21.46l-.23,0a.82.82,0,0,0-.74,1.1c.52,1.8,1,2.5,1.6,2.5s.72-.5.91-1.14a80.55,80.55,0,0,0,10-2.56,8.83,8.83,0,0,1-3,2.2,1,1,0,0,0-.55.57.54.54,0,0,0,.05.42.87.87,0,0,0,.79.54.81.81,0,0,0,.35-.07,13.66,13.66,0,0,0,2.39-1v1.23H172.92a.87.87,0,0,0-.82.36.64.64,0,0,0,0,.64,1,1,0,0,0,.94.59h10.77a31.74,31.74,0,0,1-11.43,6.09.91.91,0,0,0-.62.47.72.72,0,0,0,0,.64,1,1,0,0,0,.81.49,1,1,0,0,0,.28,0A34,34,0,0,0,185.4,25v5.61a.84.84,0,0,0,.89.9h.85a.85.85,0,0,0,.92-.9V24a33.11,33.11,0,0,0,11.63,6.08.89.89,0,0,0,1.13-.46,5,5,0,0,1,.68-.9.72.72,0,0,0-.36-1.31Zm-10.61-10.7c.05,1.42.81,1.63,1.25,1.63a1.38,1.38,0,0,0,1.51-1.55c0-1.32-.81-2.58-2.45-3.81a.94.94,0,0,0-.66-.29.8.8,0,0,0-.49.17.83.83,0,0,0-.23.28v-.68h4.59V18a1.68,1.68,0,0,0,1.07,1.8,8,8,0,0,0,2.73.28l1,0a1.19,1.19,0,0,0-.28.2l-1.22,1.19h-9.34v-.52c.84-.29,1.21-.6,1.21-1,0-.56-.59-.9-2-1.1a7.28,7.28,0,0,0,2.18-5.12,1.35,1.35,0,0,0,.16.3A4.79,4.79,0,0,1,190.53,16.68Zm-2.93-6h0Z"/><path class="cls-1" d="M231.35,25.32a.89.89,0,0,0-.66-.32.81.81,0,0,0-.67.38l-1.48,1.84h-8.46V9.29h10.35a1.05,1.05,0,0,0,.91-.43.92.92,0,0,0-.12-1.14c-.46-.5-.88-.93-1.25-1.29L229.54,6a.92.92,0,0,0-.64-.28.86.86,0,0,0-.67.35L226.91,7.7H206.84a.89.89,0,0,0-.79.35.59.59,0,0,0,0,.56.94.94,0,0,0,1,.68h10.25V27.22h-12a.9.9,0,0,0-.78.33.65.65,0,0,0-.06.62,1,1,0,0,0,1,.63h26.93a1,1,0,0,0,.95-.53.89.89,0,0,0-.12-1.1C232.67,26.68,232.08,26.05,231.35,25.32Z"/><path class="cls-1" d="M237.43,6.64h26.64a.94.94,0,0,0,.88-.4,1,1,0,0,0-.17-1.15C264.23,4.54,263.7,4,263,3.41a.89.89,0,0,0-1.28.08l-1.35,1.57H237.3a.9.9,0,0,0-.78.33.67.67,0,0,0,0,.66A1,1,0,0,0,237.43,6.64Z"/><path class="cls-1" d="M265.14,17.95c-.6-.63-1.15-1.13-1.61-1.53a.71.71,0,0,0-.23-.19l-.11-.08H263a.86.86,0,0,0-.68.45L261.13,18h-8v-1.5c.76-.22,1.4-.52,1.4-1.08s-.88-1-3-1.12h-.11a.83.83,0,0,0-.88.87V18H242.2c0-.72.07-1.48.07-2.27V14.24h16.78v.38a.83.83,0,0,0,.93.87h.78a.84.84,0,0,0,.93-.87V10.44l.62-.41a.73.73,0,0,0,.33-.61c0-.18,0-.57-1.67-1.85a1,1,0,0,0-.61-.22.84.84,0,0,0-.68.34l-.76.86H242.39c-.61-.31-1.16-.55-1.72-.78a.78.78,0,0,0-1.13.78v7.19c0,6.16-1.37,11-4.09,14.41-.41.63-.11,1,0,1.1a.92.92,0,0,0,.64.27.91.91,0,0,0,.63-.27c3.09-2.82,4.9-6.75,5.39-11.69h6.71v.22c0,4.87-2.47,8.16-7.55,10.08a.92.92,0,0,0-.6.53.6.6,0,0,0,0,.5.89.89,0,0,0,1.14.54c5.14-1.37,8.26-4.1,9.3-8.11h8a10.45,10.45,0,0,1-.64,3.73c-.15.34-.47.78-1.62.78a31.83,31.83,0,0,1-4.38-.37c-.65-.11-1,.2-1,.71a.92.92,0,0,0,.83.93,17.65,17.65,0,0,1,2.91.67,1.36,1.36,0,0,1,.85.61,1,1,0,0,0,1,.62h0a4.22,4.22,0,0,0,3.48-1.79c.76-1.12,1.19-3,1.27-5.62l.51-.29a.86.86,0,0,0,.54-.76c0-.31-.19-.75-1.61-1.82a1,1,0,0,0-.59-.21.93.93,0,0,0-.69.33l-.79.89h-7.66a16.26,16.26,0,0,0,.11-1.93v-.25h12.8a1,1,0,0,0,.78-1.61Zm-22.87-5.32V10.13h16.78v2.49Z"/><path class="cls-1" d="M57.72,6.87h-7a11.86,11.86,0,0,1-.62,1.21h6v6.11c0,1.28-.63,1.35-2.94,1.35a3.82,3.82,0,0,0-.39-1.14l1.1,0c.95,0,1,0,1-.25v-1H50v2.39H48.77V10a10.38,10.38,0,0,1-2,1.87,9.68,9.68,0,0,0-.85-.91,10.4,10.4,0,0,0,3.48-4.14H46.18V5.77h3.66a15.55,15.55,0,0,0,.52-1.55l1.54.36c0,.11-.14.17-.32.16-.1.34-.23.68-.36,1h6.5Zm-2.85,3.28V9.08H50v1.06Zm-4.86,2h4.86V11.11H50Z"/><path class="cls-1" d="M62.82,4.71l.8.41a.37.37,0,0,1-.12.16c-.34,1-.83,2.23-1.28,3.21A3.5,3.5,0,0,1,63.56,11c0,1.91-1.33,1.86-2.37,1.83a2.59,2.59,0,0,0-.28-1,4.21,4.21,0,0,0,.53,0c.66,0,1-.13,1-1a3.33,3.33,0,0,0-1.29-2.29c.36-.85.73-2,1-2.83H60.53v9.77H59.37V4.75h3.25Zm4.78,5.62a9.42,9.42,0,0,0,.62,1.55,13.56,13.56,0,0,0,1.45-1.37l1.1.77a.37.37,0,0,1-.32.06,18.64,18.64,0,0,1-1.72,1.37A5.24,5.24,0,0,0,71,14.56a4.54,4.54,0,0,0-.82,1c-1.93-.93-3-2.79-3.65-5.18H65.32v3.47l2.15-.39.1,1c-1.55.34-3.17.68-4.2.88a.24.24,0,0,1-.19.19l-.49-1.23L64.13,14V4.78h6v5.56Zm1.29-4.56H65.32V7h3.57ZM65.32,8V9.35h3.57V8Z"/><path class="cls-1" d="M48.82,23.55v-.88A16.12,16.12,0,0,1,46.53,24,4.9,4.9,0,0,0,45.8,23a13.23,13.23,0,0,0,5.44-4.28l1.7.08a.35.35,0,0,1-.3.21,13.37,13.37,0,0,0,5.49,3.8,6.21,6.21,0,0,0-.79,1A17.17,17.17,0,0,1,55,22.59v1Zm-2.27,2.36V24.84H57.39v1.08H51.23l.29.08c-.05.1-.17.15-.35.15a23.41,23.41,0,0,1-1.27,2.35l4.84-.13a17.05,17.05,0,0,0-1.61-1.55l1.06-.53a16.39,16.39,0,0,1,3.06,3.18l-1.13.65a9.48,9.48,0,0,0-.58-.82c-3,.16-6.22.29-8.24.37a.26.26,0,0,1-.22.18l-.44-1.29c.54,0,1.19,0,1.9,0a20.27,20.27,0,0,0,1.27-2.6Zm8.31-3.42a13.2,13.2,0,0,1-3-2.61,12,12,0,0,1-2.8,2.61Z"/><path class="cls-1" d="M64.31,21.41a.32.32,0,0,1-.18.16,12,12,0,0,1-1.72,2.78c.63.4,1.79,1.2,2.11,1.43l-.73.94c-.34-.33-1-.88-1.55-1.34v4.71H61V25.83a11.73,11.73,0,0,1-1.77,1.34,4.65,4.65,0,0,0-.62-1.06,10.64,10.64,0,0,0,4-4H59V21h2V18.75l1.51.08c0,.1-.09.17-.3.21v2h1.07l.19,0Zm3.81,7.18h3v1.14H63.66V28.6h3.2V23.77H64.19V22.65h2.67v-3.8l1.57.1c0,.1-.1.17-.31.19v3.51h2.66v1.13H68.12Z"/><path class="cls-1" d="M11.58,25.41a2.38,2.38,0,0,0-.39,0H10.9v.39h.26a2.21,2.21,0,0,0,.42,0,.16.16,0,0,0,.09-.06.19.19,0,0,0,0-.12.17.17,0,0,0,0-.11A.18.18,0,0,0,11.58,25.41Z"/><path class="cls-1" d="M18.21,30a.56.56,0,0,0-.43.17.82.82,0,0,0-.17.57.8.8,0,0,0,.17.57.55.55,0,0,0,.42.18.55.55,0,0,0,.42-.18.83.83,0,0,0,.17-.58.81.81,0,0,0-.16-.56A.55.55,0,0,0,18.21,30Z"/><polygon class="cls-1" points="7.6 26.24 7.93 26.24 7.76 25.79 7.6 26.24"/><path class="cls-1" d="M0,0V34.21H36.51V0ZM8.43,27.5l-.23-.57H7.34l-.21.57H6.29L7.4,24.71h.73L9.28,27.5Zm-.15-5.12v0L7.41,19v3.41H6.14V17.56h2v0l.72,2.78.72-2.8h2v4.81H10.29V19l-.87,3.41Zm3.61,5.12-.42-.61a3.24,3.24,0,0,0-.26-.36.28.28,0,0,0-.11-.07.69.69,0,0,0-.2,0V27.5h-.78V24.71h1.23a2,2,0,0,1,.65.08.76.76,0,0,1,.36.28.82.82,0,0,1,.14.48.78.78,0,0,1-.22.57.85.85,0,0,1-.3.19l.07.07a3,3,0,0,1,.32.43l.44.69Zm1.3-6.4V18.87h1.39V20.8a.67.67,0,0,0,.11.44.39.39,0,0,0,.31.13.45.45,0,0,0,.36-.17,1,1,0,0,0,.14-.63V18.87h1.38v3.5H15.6v-.5a1.76,1.76,0,0,1-.51.43,1.51,1.51,0,0,1-.7.15,1.16,1.16,0,0,1-.88-.34A1.45,1.45,0,0,1,13.19,21.09ZM16,26.63a1.22,1.22,0,0,1-.45.69,1.28,1.28,0,0,1-.76.22,1.25,1.25,0,0,1-.91-.35,1.44,1.44,0,0,1-.4-1.07,1.5,1.5,0,0,1,.4-1.11,1.28,1.28,0,0,1,.95-.36,1.26,1.26,0,0,1,.81.27,1.1,1.1,0,0,1,.35.57l0,.13-.78.18,0-.12a.4.4,0,0,0-.15-.24.44.44,0,0,0-.27-.08.48.48,0,0,0-.37.16.86.86,0,0,0-.15.58.92.92,0,0,0,.15.6.46.46,0,0,0,.36.16.41.41,0,0,0,.28-.1.63.63,0,0,0,.18-.34l0-.13.76.24Zm3.14,5.18a1.35,1.35,0,0,1-1,.35,1.36,1.36,0,0,1-1-.35,1.43,1.43,0,0,1-.41-1.08,1.62,1.62,0,0,1,.18-.81,1.23,1.23,0,0,1,.49-.49,1.52,1.52,0,0,1,.72-.16,1.38,1.38,0,0,1,1,.38,1.42,1.42,0,0,1,.39,1.06A1.45,1.45,0,0,1,19.18,31.81Zm-.5-6.11v-1h.78V27.5h-.78V26.39h-.77V27.5h-.78V24.71h.78v1Zm1.41-5.62a2.16,2.16,0,0,0-.2,1.11v1.18H18.51v-3.5h1.3v.47a1.22,1.22,0,0,1,.32-.4,1.08,1.08,0,0,1,1.14,0h0l-.43,1h0a1,1,0,0,0-.36-.1A.42.42,0,0,0,20.09,20.08Zm.53,4.63h.78V27.5h-.78ZM22.68,30H21.42v.34h1.09V31H21.42v1.08h-.78V29.33h2Zm2-10.28a.48.48,0,0,0-.33-.09.89.89,0,0,0-.47.1.54.54,0,0,0-.19.29v0h0l-1.29-.14v0a1.45,1.45,0,0,1,.21-.53A1.18,1.18,0,0,1,23,19a1.66,1.66,0,0,1,.51-.16,4.08,4.08,0,0,1,.69-.06,5.52,5.52,0,0,1,1,.07,1.26,1.26,0,0,1,.61.28,1,1,0,0,1,.27.43,1.53,1.53,0,0,1,.1.52v1.52a1.81,1.81,0,0,0,0,.37,1.68,1.68,0,0,0,.13.35l0,0H25v0a1.28,1.28,0,0,1-.1-.21,1.21,1.21,0,0,1,0-.17,1.7,1.7,0,0,1-.48.32,2.19,2.19,0,0,1-.83.14,1.4,1.4,0,0,1-1-.29.94.94,0,0,1-.33-.73,1,1,0,0,1,.24-.67,1.59,1.59,0,0,1,.87-.39l1-.21.44-.15A.42.42,0,0,0,24.68,19.73Zm-2.33,5.66v-.69h2.32v.69H23.9V27.5h-.78V25.39ZM25.78,30H24.52v.34h1.09V31H24.52v1.08h-.78V29.33h2Zm1.83,2.11h-.78V29.33h.78Zm.26-4.62H25.63V24.71h2.19v.69H26.42v.3h1.31v.68H26.42v.43h1.45Zm1.72,3.81a.46.46,0,0,0,.36.16.41.41,0,0,0,.28-.1A.63.63,0,0,0,30.4,31l0-.13.76.24,0,.12a1.22,1.22,0,0,1-.44.69,1.28,1.28,0,0,1-.76.22,1.25,1.25,0,0,1-.91-.35,1.44,1.44,0,0,1-.4-1.07,1.5,1.5,0,0,1,.4-1.11,1.28,1.28,0,0,1,.95-.36,1.25,1.25,0,0,1,.81.27,1.1,1.1,0,0,1,.35.57l0,.13-.78.18,0-.12a.41.41,0,0,0-.15-.24A.44.44,0,0,0,30,30a.48.48,0,0,0-.37.16.87.87,0,0,0-.15.58A.93.93,0,0,0,29.59,31.31Zm.2-4.62a.46.46,0,0,0,.36.16.41.41,0,0,0,.28-.1.63.63,0,0,0,.18-.34l0-.13.76.24,0,.12a1.21,1.21,0,0,1-.45.69,1.28,1.28,0,0,1-.76.22,1.25,1.25,0,0,1-.91-.35,1.44,1.44,0,0,1-.4-1.07,1.5,1.5,0,0,1,.4-1.11,1.28,1.28,0,0,1,.95-.36,1.25,1.25,0,0,1,.81.27,1.1,1.1,0,0,1,.35.57l0,.13-.78.18,0-.12a.4.4,0,0,0-.15-.24.44.44,0,0,0-.27-.08.48.48,0,0,0-.37.16.86.86,0,0,0-.15.58A.93.93,0,0,0,29.79,26.69Zm.48-4.31L29.58,21l-.46.45v.91H27.71V17.56h1.41V20l.94-1.09h1.71l-.05.05L30.5,20.11l1.32,2.26Zm4.21,9.74H32.24V29.33h2.19V30H33v.3h1.31V31H33v.43h1.45Zm.1-6.73h-.77V27.5H33V25.39h-.77v-.69h2.32Zm-.15-6.52v3.5H33.05v-3.5Zm-1.38-.35v-1h1.38v1ZM35.2,16H31.92V6L19.63,13.57h-1.7L4.78,5.74V32.79H1.49V2.84L4,1.43l14.77,8.82L32.7,1.67l2.5,1.4Z"/><path class="cls-1" d="M23.74,21.12a.31.31,0,0,0,0,.45.43.43,0,0,0,.3.09.8.8,0,0,0,.4-.1.62.62,0,0,0,.26-.25.85.85,0,0,0,.08-.39v-.17l-.53.16A1.29,1.29,0,0,0,23.74,21.12Z"/></g></g></svg>