<?xml version="1.0" encoding="UTF-8"?>
<svg width="380px" height="49px" viewBox="0 0 380 49" version="1.1" xmlns="http://www.w3.org/2000/svg" xmlns:xlink="http://www.w3.org/1999/xlink">
    <!-- Generator: Sketch 46.2 (44496) - http://www.bohemiancoding.com/sketch -->
    <title>logo</title>
    <desc>Created with Sketch.</desc>
    <defs></defs>
    <g id="トップページと共通パーツ" stroke="none" stroke-width="1" fill="none" fill-rule="evenodd">
        <g id="logo_footer" fill-rule="nonzero" fill="#333333">
            <path d="M134.671429,32.4285714 C136.1,32.4285714 136.971429,31.5428571 136.971429,29.9428571 C136.905713,28.792373 136.56262,27.6748681 135.971429,26.6857143 C134.493948,24.1451725 132.450534,21.9795441 130,20.3571429 C129.544151,19.908791 128.812992,19.908791 128.357143,20.3571429 C127.939285,20.8790469 127.939285,21.6209531 128.357143,22.1428571 C130.391943,24.3209846 131.828933,26.9882742 132.528571,29.8857143 C132.857143,31.5714286 133.571429,32.4285714 134.671429,32.4285714 Z" id="Shape"></path>
            <path d="M125.385714,12.5285714 C125.145741,12.2383329 124.783434,12.0775847 124.407213,12.0944304 C124.030993,12.1112761 123.684502,12.3037614 123.471429,12.6142857 L121.914286,14.7285714 L120.128571,14.7285714 L120.128571,7.42857143 C121.442857,6.82857143 122.042857,6.25714286 122.042857,5.62857143 C122.042857,4.3 119.928571,4.11428571 117.871429,4.11428571 C117.715196,4.09036018 117.556232,4.09036018 117.4,4.11428571 C116.914286,4.11428571 116.357143,4.44285714 116.357143,5.35714286 L116.357143,14.7 L110.814286,14.7 C110.370383,14.6498852 109.932284,14.8337786 109.657143,15.1857143 C109.484447,15.4496586 109.457547,15.7832211 109.585714,16.0714286 C109.814706,16.6508453 110.392788,17.0150374 111.014286,16.9714286 L116.085714,16.9714286 C114.743756,23.3154527 112.328069,29.3836589 108.942857,34.9142857 C108.756452,35.1640788 108.677279,35.4778586 108.722857,35.7861863 C108.768436,36.094514 108.935009,36.371966 109.185714,36.5571429 C109.419469,36.7391582 109.70403,36.8439966 110,36.8571429 C110.425433,36.8420458 110.813542,36.6102587 111.028571,36.2428571 C113.156402,33.1705254 114.979327,29.8978724 116.471429,26.4714286 L116.471429,43.7285714 C116.449404,44.0809392 116.58183,44.4254455 116.834206,44.6723352 C117.086582,44.9192248 117.433916,45.0440485 117.785714,45.0142857 L118.9,45.0142857 C119.252967,45.043556 119.601394,44.9190743 119.855907,44.672771 C120.110421,44.4264677 120.246256,44.0823081 120.228571,43.7285714 L120.228571,23.9714286 C121.461431,25.3922431 122.429165,27.0228759 123.085714,28.7857143 C123.471429,30.0428571 124.214286,30.7857143 125.085714,30.7857143 C125.685572,30.8402042 126.278336,30.6233907 126.701472,30.1947244 C127.124607,29.7660581 127.333704,29.1705278 127.271429,28.5714286 C127.220351,27.1853863 126.666902,25.8652323 125.714286,24.8571429 C124.084319,23.143293 122.194477,21.6969851 120.114286,20.5714286 L120.114286,17 L126,17 C126.632606,17.0373556 127.214213,16.6534952 127.428571,16.0571429 L127.428571,15.8714286 C127.547078,15.4015614 127.435772,14.9033339 127.128571,14.5285714 C126.592817,13.8238271 126.010568,13.1556719 125.385714,12.5285714 Z" id="Shape"></path>
            <path d="M149.028571,12.2285714 C148.793556,11.9810653 148.469772,11.8371614 148.128571,11.8285714 C147.725485,11.8435071 147.356126,12.0576285 147.142857,12.4 L145.442857,14.7428571 L144.014286,14.7428571 L144.014286,7.94285714 C145.371429,7.42857143 145.971429,6.9 145.971429,6.24285714 C145.971429,4.81428571 143.585714,4.58571429 141.471429,4.51428571 C141.118462,4.48501544 140.770035,4.60949717 140.515521,4.85580043 C140.261008,5.1021037 140.125172,5.44626338 140.142857,5.8 L140.142857,14.7428571 L128.928571,14.7428571 C128.501791,14.7044981 128.083949,14.8812774 127.814286,15.2142857 C127.648753,15.506775 127.648753,15.8646535 127.814286,16.1571429 C128.061912,16.7140808 128.635621,17.0525691 129.242857,17 L140.385714,17 L140.385714,38.9714286 C140.385714,39.1428571 140.385714,39.6857143 138.957143,39.6857143 C136.838017,39.6793254 134.720734,39.560109 132.614286,39.3285714 L132.428571,39.3285714 C132.131598,39.2921247 131.833089,39.3832283 131.607076,39.579288 C131.381063,39.7753477 131.248716,40.0579989 131.242857,40.3571429 C131.223417,40.6930487 131.339441,41.0227288 131.564971,41.2724226 C131.790501,41.5221163 132.106712,41.6709824 132.442857,41.6857143 C133.893165,41.8565716 135.326703,42.1480575 136.728571,42.5571429 C137.353389,42.6834814 137.882481,43.0961726 138.157143,43.6714286 C138.294942,44.2389816 138.801681,44.6396592 139.385714,44.6428571 L139.514286,44.6428571 C143.471429,44.4571429 144.314286,42.1714286 144.314286,40.3571429 L144.314286,17 L150.028571,17 C150.985714,17 151.285714,16.4571429 151.328571,16.2857143 C151.624338,15.8018996 151.584318,15.1844441 151.228571,14.7428571 C150.538501,13.8678709 149.804212,13.0286836 149.028571,12.2285714 L149.028571,12.2285714 Z" id="Shape"></path>
            <path d="M196.857143,35 C189.592811,31.0602739 183.418239,25.3814348 178.885714,18.4714286 L194.514286,18.4714286 C195.020836,18.527476 195.514805,18.288817 195.785714,17.8571429 C196.157987,17.3887723 196.157987,16.7255134 195.785714,16.2571429 C195.031621,15.3085524 194.225628,14.402406 193.371429,13.5428571 C193.137465,13.2620318 192.793957,13.0954827 192.428571,13.0857143 C192.038395,13.0936861 191.678521,13.2977936 191.471429,13.6285714 L189.4,16.2142857 L177.828571,16.2142857 L177.828571,8.25714286 C179.257143,7.74285714 179.928571,7.21428571 179.928571,6.55714286 C179.928571,5.5 178.5,4.97142857 175.257143,4.87142857 L175.1,4.87142857 C174.770443,4.86309676 174.452294,4.99234167 174.221914,5.22814265 C173.991534,5.46394363 173.869722,5.78501165 173.885714,6.11428571 L173.885714,16.2142857 L157.142857,16.2142857 C156.708641,16.1743379 156.283772,16.3571932 156.014286,16.7 C155.864622,16.9182068 155.832535,17.1963004 155.928571,17.4428571 C156.058598,18.1090573 156.684099,18.5594181 157.357143,18.4714286 L172.228571,18.4714286 C168.370694,26.2710602 162.709544,33.0389757 155.714286,38.2142857 C155.386993,38.3914745 155.156332,38.706012 155.085714,39.0714286 C155.04413,39.3832986 155.143622,39.6974849 155.357143,39.9285714 C155.795134,40.4459356 156.552384,40.5505962 157.114286,40.1714286 C163.849728,35.9751751 169.549014,30.3100746 173.785714,23.6 L173.785714,43.7714286 C173.763567,44.1124522 173.891442,44.4461439 174.135821,44.6850306 C174.380199,44.9239173 174.716711,45.0441772 175.057143,45.0142857 L176.414286,45.0142857 C176.762875,45.0571453 177.112529,44.9432612 177.369011,44.7033266 C177.625492,44.4633919 177.762408,44.1220984 177.742857,43.7714286 L177.742857,21.6 C181.825478,28.4338457 187.325141,34.3134683 193.871429,38.8428571 C194.157171,39.0314745 194.506343,39.098331 194.84155,39.0286079 C195.176758,38.9588848 195.470311,38.7583414 195.657143,38.4714286 C196.076951,37.8990054 196.555772,37.3723013 197.085714,36.9 C197.394071,36.6512664 197.559791,36.2663685 197.528571,35.8714286 C197.46598,35.4863362 197.213548,35.1587114 196.857143,35 Z" id="Shape"></path>
            <path d="M217.628571,10.8285714 L224.614286,10.8285714 L224.614286,14.0285714 L213.428571,14.0285714 C213.000562,13.9821144 212.578993,14.1604701 212.314286,14.5 C212.146202,14.7969097 212.146202,15.1602332 212.314286,15.4571429 C212.550624,15.9834955 213.080387,16.3160063 213.657143,16.3 L224.657143,16.3 L224.657143,19.8571429 L217.142857,19.8571429 C216.683246,19.8147086 216.236156,20.0218968 215.971429,20.4 C215.812755,20.6688071 215.812755,21.0026214 215.971429,21.2714286 C216.207767,21.7977812 216.73753,22.130292 217.314286,22.1142857 L224.628571,22.1142857 L224.628571,25.7142857 L215.957143,25.7142857 C215.501643,25.6561492 215.051202,25.8539039 214.785714,26.2285714 C214.622393,26.5114524 214.622393,26.8599762 214.785714,27.1428571 C215.022053,27.6692098 215.551816,28.0017205 216.128571,27.9857143 L224.614286,27.9857143 L224.614286,31.5428571 L213.942857,31.5428571 C213.483052,31.4961369 213.03593,31.7114181 212.785714,32.1 C212.607917,32.3891398 212.607917,32.7537173 212.785714,33.0428571 C213.055572,33.5222346 213.564181,33.8175559 214.114286,33.8142857 L224.557143,33.8142857 L224.557143,38.2142857 C224.539458,38.5680223 224.675293,38.912182 224.929807,39.1584853 C225.18432,39.4047885 225.532747,39.5292703 225.885714,39.5 L227.142857,39.5 C227.488756,39.5215631 227.827086,39.3925267 228.070775,39.1460995 C228.314464,38.8996724 228.439712,38.5599217 228.414286,38.2142857 L228.414286,33.7714286 L240.814286,33.7714286 C241.34696,33.7945847 241.8482,33.519178 242.114286,33.0571429 C242.429278,32.5571457 242.358248,31.9060334 241.942857,31.4857143 C241.417287,30.8392103 240.844272,30.2327693 240.228571,29.6714286 L239.971429,29.4571429 L239.8,29.3142857 C239.599833,29.1106399 239.328319,28.992813 239.042857,28.9857143 C238.652681,28.9936861 238.292807,29.1977936 238.085714,29.5285714 L236.385714,31.5 L228.4,31.5 L228.4,27.9428571 L238.942857,27.9428571 C239.455164,27.9869803 239.951658,27.7523737 240.242857,27.3285714 C240.535066,26.7684623 240.424685,26.0829337 239.971429,25.6428571 C239.379796,25.059635 238.754945,24.511101 238.1,24 C237.82612,23.7574695 237.464354,23.6386035 237.1,23.6714286 C237.319719,23.4191607 237.43246,23.0911867 237.414286,22.7571429 L237.414286,16.2857143 L241.085714,16.2857143 C241.654413,16.3320036 242.189162,16.0100041 242.414286,15.4857143 C242.622453,15.0228539 242.584908,14.486488 242.314286,14.0571429 C242.071429,13.6857143 241.785714,13.3142857 241.485714,12.9 L240.942857,12.1571429 C240.724559,11.8086629 240.335879,11.6043237 239.925053,11.6220572 C239.514227,11.6397906 239.1446,11.8768626 238.957143,12.2428571 L237.857143,14.0571429 L237.4,14.0571429 L237.4,11.2857143 L238.271429,10.7571429 C238.640352,10.5870036 238.879136,10.2204986 238.885714,9.81428571 C238.885714,9.34285714 238.585714,8.68571429 236.385714,7.1 C236.128531,6.85844329 235.780798,6.7375831 235.429238,6.76756107 C235.077678,6.79753904 234.755429,6.97552947 234.542857,7.25714286 L233.457143,8.55714286 L228.371429,8.55714286 L228.371429,7.14285714 C229.8,6.67142857 230.328571,6.2 230.328571,5.57142857 C230.328571,4.51428571 228.9,3.98571429 225.885714,3.88571429 C225.523461,3.82047354 225.151168,3.92306865 224.873472,4.16466434 C224.595776,4.40626003 224.442654,4.76077566 224.457143,5.12857143 L224.457143,8.57142857 L217.314286,8.57142857 C216.870383,8.52131374 216.432284,8.7052072 216.157143,9.05714286 C215.988718,9.34886387 215.988718,9.70827898 216.157143,10 C216.414416,10.5675463 217.009879,10.9028552 217.628571,10.8285714 Z M228.471429,14.0428571 L228.471429,10.8285714 L233.714286,10.8285714 L233.714286,14.0285714 L228.471429,14.0428571 Z M228.471429,19.8714286 L228.471429,16.2857143 L233.714286,16.2857143 L233.714286,19.8571429 L228.471429,19.8714286 Z M235.042857,24.0428571 L236.157143,24.0428571 L236.457143,24.0428571 L236.357143,24.1571429 L234.928571,25.7142857 L228.514286,25.7142857 L228.514286,22.1142857 L233.757143,22.1142857 L233.757143,22.7428571 C233.731234,23.0911486 233.858348,23.4334463 234.105308,23.6804061 C234.352268,23.9273658 234.694566,24.0544805 235.042857,24.0285714 L235.042857,24.0428571 Z" id="Shape"></path>
            <path d="M241.728571,40 L241.728571,40 C238.6,40.2428571 235.514286,40.3571429 232.571429,40.3571429 C222.171429,40.3571429 214.771429,38.6 210.557143,35.1428571 C212.326771,31.4848004 213.461974,27.5526489 213.914286,23.5142857 L214.928571,22.9714286 C215.315413,22.7899111 215.572725,22.4121539 215.6,21.9857143 C215.6,21.4857143 215.228571,20.8857143 213.242857,19.1285714 C212.980727,18.8857703 212.628531,18.7644721 212.272482,18.7943693 C211.916434,18.8242665 211.589398,19.0025995 211.371429,19.2857143 L210.242857,20.6 L207.614286,20.6 C209.506155,17.4439036 211.195282,14.1706237 212.671429,10.8 L213.828571,10.2714286 C214.259018,10.1153309 214.552491,9.71462761 214.571429,9.25714286 C214.571429,9 214.571429,8.4 212.228571,6.4 C211.998,6.11589191 211.651611,5.95090067 211.285714,5.95090067 C210.919818,5.95090067 210.573428,6.11589191 210.342857,6.4 L209.3,7.58571429 L201.342857,7.58571429 C200.916077,7.54735527 200.498235,7.72413451 200.228571,8.05714286 C200.051185,8.31857522 200.018893,8.65226187 200.142857,8.94285714 C200.359468,9.48674435 200.885995,9.84342388 201.471429,9.84285714 L208.757143,9.84285714 C206.920635,14.3399323 204.64787,18.6462233 201.971429,22.7 C201.739849,23.0179097 201.680984,23.4299644 201.814286,23.8 C201.957898,24.1447565 202.262767,24.3961394 202.628571,24.4714286 L203.6,24.8428571 C204.209573,25.0388879 204.875125,24.8053609 205.228571,24.2714286 C205.585714,23.7571429 205.9,23.3 206.171429,22.8428571 L206.171429,22.7428571 L210,22.7428571 C209.67686,25.9486224 208.922428,29.0960925 207.757143,32.1 C206.590242,30.3761634 205.631207,28.5204302 204.9,26.5714286 C204.751115,26.0782411 204.300805,25.7376227 203.785714,25.7285714 C203.639839,25.7278958 203.494913,25.7520502 203.357143,25.8 C203.026359,25.8949748 202.748973,26.1214056 202.589689,26.4264747 C202.430405,26.7315438 202.403152,27.0885747 202.514286,27.4142857 C203.354512,30.164379 204.669592,32.7461895 206.4,35.0428571 C204.832193,38.1411037 202.655435,40.8912041 200,43.1285714 C199.185714,43.9 199.571429,44.5571429 199.785714,44.7714286 C200.033231,45.0701892 200.397867,45.2472979 200.785714,45.2571429 C201.058677,45.2521473 201.323309,45.1622722 201.542857,45 C204.539729,43.2226154 207.086605,40.7783961 208.985714,37.8571429 C213.842857,41.8714286 221.657143,43.8285714 232.8,43.8285714 L240.742857,43.8285714 C241.368017,43.8700506 241.947251,43.499341 242.171429,42.9142857 C242.315176,42.4595458 242.511757,42.0232325 242.757143,41.6142857 C243.030157,41.291979 243.091457,40.8405858 242.914286,40.4571429 C242.648008,40.0788127 242.179906,39.8983394 241.728571,40 L241.728571,40 Z" id="Shape"></path>
            <path d="M287.342857,39.1142857 C281.527969,38.090667 275.961783,35.9669827 270.942857,32.8571429 L286.757143,32.8571429 C287.226596,32.8871517 287.680732,32.6841261 287.971429,32.3142857 C288.1715,32.0616044 288.261518,31.7390636 288.221211,31.4192951 C288.180904,31.0995266 288.013661,30.8094137 287.757143,30.6142857 C287.046873,29.9514688 286.29794,29.3313338 285.514286,28.7571429 C285.382995,28.664607 285.238518,28.5923686 285.085714,28.5428571 C285.506132,28.5027429 285.919309,28.4066552 286.314286,28.2571429 C287.061959,27.9652507 287.603389,27.3047064 287.742857,26.5142857 C287.825878,26.2168196 287.786544,25.8985088 287.633608,25.6302006 C287.480672,25.3618924 287.226827,25.1658526 286.928571,25.0857143 C286.757143,24.9857143 286.171429,24.4428571 286.171429,22.0714286 L286.171429,21.5142857 C286.296406,20.9506745 285.975894,20.3836153 285.428571,20.2 C285.07458,20.039705 284.663393,20.0702655 284.336988,20.2811294 C284.010582,20.4919934 283.813686,20.8542648 283.814286,21.2428571 C283.787441,22.4711831 283.580474,23.68892 283.2,24.8571429 C283.2,25 282.985714,25.4142857 281.914286,25.4142857 C280.842857,25.4142857 280.857143,25.0714286 280.857143,24.8714286 L280.857143,18.2142857 L281.5,17.8142857 C281.859903,17.6562978 282.098304,17.3070136 282.114286,16.9142857 C282.114286,16.5571429 281.942857,16.0714286 279.985714,14.6857143 C279.448837,14.2373296 278.653412,14.2941456 278.185714,14.8142857 L277.985714,15.0142857 C278.188272,14.6425267 278.286966,14.2230755 278.271429,13.8 C278.115778,12.4028259 277.259874,11.1808742 276,10.5571429 L286.285714,10.5571429 C286.788171,10.5907871 287.271226,10.3574007 287.557143,9.94285714 C287.954773,9.45736207 287.911184,8.74748523 287.457143,8.31428571 C286.814565,7.56414081 286.122545,6.85780329 285.385714,6.2 C285.130838,5.95097161 284.779442,5.8264647 284.424635,5.85946996 C284.069828,5.89247523 283.747427,6.07966102 283.542857,6.37142857 L281.985714,8.28571429 L272.857143,8.28571429 C273.057143,7.91428571 273.257143,7.5 273.457143,7.04285714 C274.5,6.8 275.428571,6.45714286 275.428571,5.61428571 C275.428571,4.77142857 274.371429,4.18571429 271.785714,3.71428571 C271.465376,3.61391872 271.11778,3.65064214 270.825487,3.8157335 C270.533194,3.98082485 270.322286,4.25955276 270.242857,4.58571429 C269.070888,8.05099108 267.115443,11.1992589 264.528571,13.7857143 C264.259238,14.0646449 264.114854,14.4410734 264.128571,14.8285714 C264.141517,15.0051264 264.223666,15.1694245 264.357143,15.2857143 C264.814784,15.8033594 265.595094,15.8782691 266.142857,15.4571429 C268.132321,14.0878549 269.912746,12.4373531 271.428571,10.5571429 L271.742857,10.5571429 C273.040526,11.456661 273.949144,12.8144833 274.285714,14.3571429 C274.356347,14.8060928 274.590382,15.2131099 274.942857,15.5 L270.257143,15.5 L269.7,15.2428571 C269.257143,15.0285714 268.857143,14.8428571 268.485714,14.7285714 C268.122004,14.5497717 267.689893,14.5825495 267.357315,14.8141663 C267.024737,15.0457832 266.844141,15.4397118 266.885714,15.8428571 L266.885714,19.0428571 C266.910278,20.6539118 266.516501,22.2437866 265.742857,23.6571429 C265.622141,23.1410471 265.158548,22.7784935 264.628571,22.7857143 C264.50536,22.768509 264.380355,22.768509 264.257143,22.7857143 C261.885714,23.2857143 259.857143,23.6571429 257.942857,23.9714286 L257.942857,18.9571429 L263.9,18.9571429 C264.361919,18.9974127 264.814651,18.8109937 265.114286,18.4571429 C265.533695,17.9397442 265.470691,17.1836998 264.971429,16.7428571 C264.5,16.2571429 263.942857,15.7142857 263.285714,15.1 C263.03283,14.8646865 262.695085,14.7423964 262.350169,14.761259 C262.005253,14.7801216 261.682858,14.9385131 261.457143,15.2 L260.128571,16.6285714 L249.185714,16.6285714 C249.015021,16.6061153 248.842122,16.6061153 248.671429,16.6285714 C250.8139,14.8707285 252.656904,12.7768455 254.128571,10.4285714 L254.657143,10.4285714 C255.766373,11.4411472 256.497074,12.8017631 256.728571,14.2857143 C256.857266,15.3778597 257.816958,16.1790847 258.914533,16.1107236 C260.012108,16.0423625 260.864963,15.1282454 260.857143,14.0285714 C260.732192,12.5900692 259.924545,11.298897 258.685714,10.5571429 L265.828571,10.5571429 C266.330608,10.59261 266.819259,10.3854648 267.142857,10 C267.539412,9.45551703 267.465745,8.70042583 266.971429,8.24285714 C266.448788,7.58493031 265.875621,6.96877559 265.257143,6.4 C264.997584,6.15503845 264.645243,6.03348113 264.289855,6.0662862 C263.934467,6.09909127 263.610331,6.28309252 263.4,6.57142857 L261.971429,8.34285714 L255.428571,8.34285714 C255.614286,7.94285714 255.8,7.51428571 255.985714,7.07142857 C257.085714,6.87142857 258.157143,6.55714286 258.157143,5.64285714 C258.157143,4.72857143 257.142857,4.21428571 254.285714,3.65714286 C253.965376,3.55677587 253.61778,3.59349928 253.325487,3.75859064 C253.033194,3.923682 252.822286,4.2024099 252.742857,4.52857143 C251.333408,8.82500794 248.991859,12.7568599 245.885714,16.0428571 C245.594593,16.2734459 245.413276,16.6153592 245.385714,16.9857143 C245.390498,17.2480599 245.504388,17.496546 245.7,17.6714286 C246.166281,18.1826019 246.957973,18.2209096 247.471429,17.7571429 L248.014286,17.3428571 C247.928144,17.5829845 247.928144,17.8455869 248.014286,18.0857143 C248.243277,18.665131 248.82136,19.0293231 249.442857,18.9857143 L254.285714,18.9857143 L254.285714,24.5714286 C251.885714,24.8714286 249.871429,25.0714286 248.271429,25.2285714 L247.942857,25.2285714 C247.568583,25.2425057 247.223535,25.4345659 247.014479,25.7453249 C246.805423,26.0560838 246.757565,26.4480719 246.885714,26.8 C247.628571,29.3714286 248.314286,30.3714286 249.171429,30.3714286 C250.028571,30.3714286 250.2,29.6571429 250.471429,28.7428571 C255.306626,27.8304961 260.078327,26.6089409 264.757143,25.0857143 C263.567975,26.4258001 262.106983,27.4971946 260.471429,28.2285714 C260.108608,28.3802829 259.824375,28.6748517 259.685714,29.0428571 C259.626948,29.2442495 259.652738,29.4608899 259.757143,29.6428571 C259.945434,30.1023749 260.38919,30.4057021 260.885714,30.4142857 C261.057743,30.4185452 261.228557,30.3843825 261.385714,30.3142857 C262.566499,29.9473407 263.709734,29.4689993 264.8,28.8857143 L264.8,30.6428571 L247.028571,30.6428571 C246.573072,30.5847207 246.122631,30.7824753 245.857143,31.1571429 C245.693821,31.4400238 245.693821,31.7885476 245.857143,32.0714286 C246.093482,32.5977812 246.623244,32.930292 247.2,32.9142857 L262.585714,32.9142857 C257.798652,36.9057164 252.240097,39.867361 246.257143,41.6142857 C245.87629,41.6942444 245.551289,41.9406166 245.371429,42.2857143 C245.228535,42.5737265 245.228535,42.9119878 245.371429,43.2 C245.615274,43.6126923 246.049845,43.8755805 246.528571,43.9 C246.661245,43.918759 246.795898,43.918759 246.928571,43.9 C253.401368,42.4253233 259.503155,39.639408 264.857143,35.7142857 L264.857143,43.7285714 C264.831716,44.0742074 264.956965,44.4139581 265.200654,44.6603853 C265.444343,44.9068124 265.782673,45.0358489 266.128571,45.0142857 L267.342857,45.0142857 C267.694656,45.0440485 268.041989,44.9192248 268.294365,44.6723352 C268.546741,44.4254455 268.679168,44.0809392 268.657143,43.7285714 L268.657143,34.2857143 C273.560245,38.2604779 279.209284,41.2137156 285.271429,42.9714286 C285.898635,43.2136752 286.606021,42.9257125 286.885714,42.3142857 C287.159989,41.8504434 287.485872,41.419128 287.857143,41.0285714 C288.215987,40.7798443 288.378697,40.3316676 288.263,39.9106586 C288.147303,39.4896496 287.778413,39.1875615 287.342857,39.1571429 L287.342857,39.1142857 Z M272.185714,23.8285714 C272.257143,25.8571429 273.342857,26.1571429 273.971429,26.1571429 C274.570658,26.2188815 275.165229,26.0032594 275.585587,25.5717659 C276.005946,25.1402723 276.205952,24.5402682 276.128571,23.9428571 C276.128571,22.0571429 274.971429,20.2571429 272.628571,18.5 C272.381834,18.2420878 272.042569,18.0930168 271.685714,18.0857143 C271.431886,18.0866849 271.185604,18.1721298 270.985714,18.3285714 C270.848067,18.4360783 270.73587,18.5726662 270.657143,18.7285714 L270.657143,17.7571429 L277.214286,17.7571429 L277.214286,25.7142857 C277.061971,26.8229781 277.696129,27.8897859 278.742857,28.2857143 C280.010113,28.6426929 281.329522,28.7780169 282.642857,28.6857143 L284.071429,28.6857143 C283.924957,28.7610707 283.790216,28.8573147 283.671429,28.9714286 L281.928571,30.6714286 L268.585714,30.6714286 L268.585714,29.9285714 C269.785714,29.5142857 270.314286,29.0714286 270.314286,28.5 C270.314286,27.7 269.471429,27.2142857 267.457143,26.9285714 C269.422877,24.9990881 270.542893,22.3685918 270.571429,19.6142857 C270.629253,19.7662047 270.706053,19.9102036 270.8,20.0428571 C271.631574,21.1369832 272.114438,22.4561479 272.185714,23.8285714 L272.185714,23.8285714 Z" id="Shape"></path>
            <path d="M330.5,36.1714286 C330.266036,35.8906032 329.922528,35.7240541 329.557143,35.7142857 C329.166966,35.7222575 328.807093,35.926365 328.6,36.2571429 L326.485714,38.8857143 L314.4,38.8857143 L314.4,13.2714286 L329.185714,13.2714286 C329.695346,13.3012251 330.185145,13.0697814 330.485714,12.6571429 C330.815071,12.1406676 330.743963,11.4651483 330.314286,11.0285714 C329.657143,10.3142857 329.057143,9.7 328.528571,9.18571429 L327.914286,8.57142857 C327.673967,8.32307567 327.345499,8.17937102 327,8.17142857 C326.620881,8.18143004 326.26763,8.36596383 326.042857,8.67142857 L324.157143,11 L295.485714,11 C295.048427,10.9606246 294.621768,11.1496506 294.357143,11.5 C294.222527,11.7496777 294.222527,12.0503223 294.357143,12.3 C294.534201,12.9277928 295.136791,13.3375541 295.785714,13.2714286 L310.428571,13.2714286 L310.428571,38.8857143 L293.285714,38.8857143 C292.858934,38.8473553 292.441092,39.0241345 292.171429,39.3571429 C291.994043,39.6185752 291.96175,39.9522619 292.085714,40.2428571 C292.314706,40.8222738 292.892788,41.1864659 293.514286,41.1428571 L331.985714,41.1428571 C332.547809,41.1801327 333.079327,40.8836018 333.342857,40.3857143 C333.65785,39.8857171 333.586819,39.2346048 333.171429,38.8142857 C332.385714,38.1142857 331.542857,37.2142857 330.5,36.1714286 Z" id="Shape"></path>
            <path d="M339.185714,9.48571429 L377.242857,9.48571429 C377.735243,9.54179873 378.218495,9.32213868 378.5,8.91428571 C378.778355,8.37102249 378.680775,7.71091987 378.257143,7.27142857 C377.471429,6.48571429 376.714286,5.71428571 375.714286,4.87142857 C375.459533,4.63782913 375.120655,4.51801421 374.775688,4.53957468 C374.43072,4.56113515 374.109398,4.7222126 373.885714,4.98571429 L371.957143,7.22857143 L339,7.22857143 C338.57322,7.19021241 338.155378,7.36699165 337.885714,7.7 C337.720181,7.99248933 337.720181,8.35036781 337.885714,8.64285714 C338.11584,9.15479863 338.624429,9.48454316 339.185714,9.48571429 Z" id="Shape"></path>
            <path d="M378.771429,25.6428571 C377.914286,24.7428571 377.128571,24.0285714 376.471429,23.4571429 C376.382363,23.3444181 376.270368,23.2518999 376.142857,23.1857143 L375.985714,23.0714286 L375.714286,23.0714286 C375.303012,23.1088274 374.938042,23.3503517 374.742857,23.7142857 L373.042857,25.7142857 L361.614286,25.7142857 L361.614286,23.5714286 C362.7,23.2571429 363.614286,22.8285714 363.614286,22.0285714 C363.614286,21.2285714 362.357143,20.6 359.328571,20.4285714 L359.171429,20.4285714 C358.834596,20.4078183 358.504878,20.5315766 358.26489,20.7688377 C358.024902,21.0060987 357.897383,21.3343804 357.914286,21.6714286 L357.914286,25.7142857 L346,25.7142857 C346,24.6857143 346.1,23.6 346.1,22.4714286 L346.1,20.3428571 L370.071429,20.3428571 L370.071429,20.8857143 C370.051878,21.2363841 370.188793,21.5776777 370.445275,21.8176123 C370.701757,22.0575469 371.051411,22.171431 371.4,22.1285714 L372.514286,22.1285714 C372.861765,22.1663225 373.208435,22.0506968 373.463683,21.811917 C373.71893,21.5731371 373.857385,21.2349363 373.842857,20.8857143 L373.842857,14.9142857 L374.728571,14.3285714 C375.022476,14.1360544 375.199684,13.8084865 375.2,13.4571429 C375.2,13.2 375.2,12.6428571 372.814286,10.8142857 C372.566783,10.6156365 372.260179,10.5050581 371.942857,10.5 C371.560117,10.4977183 371.199247,10.678153 370.971429,10.9857143 L369.885714,12.2142857 L346.271429,12.2142857 C345.4,11.7714286 344.614286,11.4285714 343.814286,11.1 C343.449418,10.913716 343.011756,10.9426678 342.674606,11.1753908 C342.337456,11.4081139 342.155197,11.8070721 342.2,12.2142857 L342.2,22.4857143 C342.2,31.2857143 340.242857,38.2 336.357143,43.0714286 C335.771429,43.9714286 336.2,44.5 336.357143,44.6428571 C336.599794,44.8859604 336.927973,45.0244111 337.271429,45.0285714 C337.610234,45.0222134 337.933166,44.883814 338.171429,44.6428571 C342.585714,40.6142857 345.171429,35 345.871429,27.9428571 L355.457143,27.9428571 L355.457143,28.2571429 C355.457143,35.2142857 351.928571,39.9142857 344.671429,42.6571429 C344.285127,42.7654679 343.96946,43.0443069 343.814286,43.4142857 C343.710354,43.641039 343.710354,43.9018182 343.814286,44.1285714 C343.927323,44.4472977 344.16268,44.7078591 344.468304,44.8526282 C344.773928,44.9973973 345.124633,45.0144447 345.442857,44.9 C352.785714,42.9428571 357.242857,39.0428571 358.728571,33.3142857 L370.157143,33.3142857 C370.179229,35.131318 369.869387,36.9371155 369.242857,38.6428571 C369.028571,39.1285714 368.571429,39.7571429 366.928571,39.7571429 C364.833169,39.7253495 362.742471,39.548738 360.671429,39.2285714 C359.742857,39.0714286 359.242857,39.5142857 359.242857,40.2428571 C359.23215,40.926791 359.747826,41.5045976 360.428571,41.5714286 C361.838835,41.7724711 363.229526,42.0926644 364.585714,42.5285714 C365.090483,42.645509 365.527631,42.959227 365.8,43.4 C366.033742,43.9737852 366.610697,44.3314973 367.228571,44.2857143 L367.228571,44.2857143 C369.204666,44.2996602 371.062127,43.3442419 372.2,41.7285714 C373.285714,40.1285714 373.9,37.4428571 374.014286,33.7 L374.742857,33.2857143 C375.190877,33.106677 375.492634,32.681983 375.514286,32.2 C375.514286,31.7571429 375.242857,31.1285714 373.214286,29.6 C372.972701,29.4123357 372.677255,29.3071771 372.371429,29.3 C371.990453,29.308506 371.631471,29.480193 371.385714,29.7714286 L370.257143,31.0428571 L359.314286,31.0428571 C359.421301,30.1277394 359.473775,29.2070651 359.471429,28.2857143 L359.471429,27.9285714 L377.757143,27.9285714 C378.298285,27.9218917 378.789193,27.6100012 379.025149,27.1229648 C379.261104,26.6359284 379.201592,26.0573741 378.871429,25.6285714 L378.771429,25.6428571 Z M346.1,18.0428571 L346.1,14.4714286 L370.071429,14.4714286 L370.071429,18.0285714 L346.1,18.0428571 Z" id="Shape"></path>
            <path d="M82.4571429,9.81428571 L72.4571429,9.81428571 C72.1952012,10.4069387 71.8994773,10.9840772 71.5714286,11.5428571 L80.1428571,11.5428571 L80.1428571,20.2714286 C80.1428571,22.1 79.2428571,22.2 75.9428571,22.2 C75.8444624,21.6310884 75.6564095,21.0813953 75.3857143,20.5714286 L76.9571429,20.5714286 C78.3142857,20.5714286 78.3857143,20.5714286 78.3857143,20.2142857 L78.3857143,18.7857143 L71.4285714,18.7857143 L71.4285714,22.2 L69.6714286,22.2 L69.6714286,14.2857143 C68.8411863,15.298445 67.8804491,16.1967343 66.8142857,16.9571429 C66.4378441,16.4981975 66.0322432,16.0639659 65.6,15.6571429 C67.7497172,14.1586349 69.464856,12.1182113 70.5714286,9.74285714 L65.9714286,9.74285714 L65.9714286,8.24285714 L71.2,8.24285714 C71.4862756,7.51829867 71.7342373,6.77918216 71.9428571,6.02857143 L74.1428571,6.54285714 C74.1428571,6.7 73.9428571,6.78571429 73.6857143,6.77142857 C73.5428571,7.25714286 73.3571429,7.74285714 73.1714286,8.2 L82.4571429,8.2 L82.4571429,9.81428571 Z M78.3857143,14.5 L78.3857143,12.9714286 L71.4285714,12.9714286 L71.4285714,14.4857143 L78.3857143,14.5 Z M71.4428571,17.3571429 L78.3857143,17.3571429 L78.3857143,15.8714286 L71.4285714,15.8714286 L71.4428571,17.3571429 Z" id="Shape"></path>
            <path d="M89.7428571,6.72857143 L90.8857143,7.31428571 C90.8506373,7.40476842 90.7913276,7.48384812 90.7142857,7.54285714 C90.2285714,8.97142857 89.5285714,10.7285714 88.8857143,12.1285714 C90.0027691,12.9988171 90.6984405,14.3019031 90.8,15.7142857 C90.8,18.4428571 88.9,18.3714286 87.4142857,18.3285714 C87.3787629,17.83026 87.242695,17.3443032 87.0142857,16.9 C87.2664162,16.915902 87.5192981,16.915902 87.7714286,16.9 C88.7142857,16.9 89.2,16.7142857 89.2,15.4714286 C89.0602552,14.1743994 88.3940007,12.9916685 87.3571429,12.2 C87.8714286,10.9857143 88.4,9.34285714 88.7857143,8.15714286 L86.4714286,8.15714286 L86.4714286,22.1142857 L84.8142857,22.1142857 L84.8142857,6.78571429 L89.4571429,6.78571429 L89.7428571,6.72857143 Z M96.5714286,14.7571429 C96.8005538,15.519996 97.0969555,16.2610003 97.4571429,16.9714286 C98.1947343,16.3707901 98.8870835,15.7166395 99.5285714,15.0142857 L101.1,16.1142857 C100.969053,16.2119671 100.800296,16.243609 100.642857,16.2 C99.8630369,16.9001655 99.042562,17.5536833 98.1857143,18.1571429 C98.9935379,19.3283768 100.118422,20.2451329 101.428571,20.8 C100.971927,21.2178526 100.57745,21.6989224 100.257143,22.2285714 C97.5,20.9 95.9714286,18.2428571 95.0428571,14.8285714 L93.3142857,14.8285714 L93.3142857,19.7857143 L96.3857143,19.2285714 L96.5285714,20.6571429 C94.3142857,21.1428571 92,21.6285714 90.5285714,21.9142857 C90.5019684,22.0516774 90.3945345,22.1591112 90.2571429,22.1857143 L89.5571429,20.4285714 L91.6142857,20 L91.6142857,6.82857143 L100.185714,6.82857143 L100.185714,14.7714286 L96.5714286,14.7571429 Z M98.4142857,8.24285714 L93.3142857,8.24285714 L93.3142857,10 L98.4142857,10 L98.4142857,8.24285714 Z M93.3142857,11.4285714 L93.3142857,13.3571429 L98.4142857,13.3571429 L98.4142857,11.4285714 L93.3142857,11.4285714 Z" id="Shape"></path>
            <path d="M69.7428571,33.6428571 L69.7428571,32.3857143 C68.7063369,33.1076995 67.6121695,33.7431766 66.4714286,34.2857143 C66.1856103,33.7673454 65.8351947,33.2873241 65.4285714,32.8571429 C68.5157512,31.5448306 71.1980333,29.4345057 73.2,26.7428571 L75.6285714,26.8571429 C75.5535967,27.0298614 75.3879484,27.1458152 75.2,27.1571429 C77.3131158,29.6008246 80.0115426,31.4685881 83.0428571,32.5857143 C82.6186715,33.0219421 82.2404901,33.5006527 81.9142857,34.0142857 C80.7569392,33.5199503 79.6393535,32.9372774 78.5714286,32.2714286 L78.5714286,33.7 L69.7428571,33.6428571 Z M66.5,37.0142857 L66.5,35.4857143 L81.9857143,35.4857143 L81.9857143,37.0285714 L73.1857143,37.0285714 L73.6,37.1428571 C73.5285714,37.2857143 73.3571429,37.3571429 73.1,37.3571429 C72.559628,38.5098099 71.9538802,39.6306818 71.2857143,40.7142857 L78.2,40.5285714 C77.482584,39.7409703 76.7142673,39.0012865 75.9,38.3142857 L77.4142857,37.5571429 C79.0695654,38.8674322 80.5400348,40.395567 81.7857143,42.1 L80.1714286,43.0285714 C79.9161318,42.6237283 79.6395533,42.2327035 79.3428571,41.8571429 C75.0571429,42.0857143 70.4571429,42.2714286 67.5714286,42.3857143 C67.5269419,42.5261778 67.4036341,42.6270659 67.2571429,42.6428571 L66.6285714,40.8 C67.4,40.8 68.3285714,40.8 69.3428571,40.8 C70.0353304,39.6067065 70.6416367,38.3654494 71.1571429,37.0857143 L66.5,37.0142857 Z M78.3714286,32.1285714 C76.7627763,31.1092546 75.3178132,29.8521367 74.0857143,28.4 C72.9604723,29.8488769 71.6099614,31.107746 70.0857143,32.1285714 L78.3714286,32.1285714 Z" id="Shape"></path>
            <path d="M91.8714286,30.5857143 C91.8187489,30.6924827 91.7264941,30.774487 91.6142857,30.8142857 C90.9802346,32.243983 90.1535176,33.5801884 89.1571429,34.7857143 C90.0571429,35.3571429 91.7142857,36.5 92.1714286,36.8285714 L91.1285714,38.1714286 C90.6428571,37.7 89.7,36.9142857 88.9142857,36.2571429 L88.9142857,42.9857143 L87.1428571,42.9857143 L87.1428571,36.9 C86.3624142,37.6165993 85.5157663,38.2575645 84.6142857,38.8142857 C84.3872896,38.2725876 84.089455,37.7633866 83.7285714,37.3 C86.114057,35.9457506 88.0886077,33.9711999 89.4428571,31.5857143 L84.2857143,31.5857143 L84.2857143,30 L87.1428571,30 L87.1428571,26.7857143 L89.3,26.9 C89.3,27.0428571 89.1714286,27.1428571 88.8714286,27.2 L88.8714286,30.0571429 L90.4,30.0571429 L90.6714286,30.0571429 L91.8714286,30.5857143 Z M97.3142857,40.8428571 L101.6,40.8428571 L101.6,42.4714286 L90.9428571,42.4714286 L90.9428571,40.8571429 L95.5142857,40.8571429 L95.5142857,33.9571429 L91.7,33.9571429 L91.7,32.3571429 L95.5142857,32.3571429 L95.5142857,26.9285714 L97.7571429,27.0714286 C97.7571429,27.2142857 97.6142857,27.3142857 97.3142857,27.3428571 L97.3142857,32.3571429 L101.114286,32.3571429 L101.114286,33.9714286 L97.3142857,33.9714286 L97.3142857,40.8428571 Z" id="Shape"></path>
            <path d="M16.5428571,36.3 C16.3574556,36.2847583 16.1711158,36.2847583 15.9857143,36.3 L15.5714286,36.3 L15.5714286,36.8571429 L15.9428571,36.8571429 C16.1424036,36.8761905 16.3433107,36.8761905 16.5428571,36.8571429 C16.5943653,36.8443637 16.6398216,36.8140595 16.6714286,36.7714286 C16.6899475,36.7157861 16.6899475,36.6556424 16.6714286,36.6 C16.6888437,36.5490665 16.6888437,36.4937906 16.6714286,36.4428571 C16.6486471,36.3804098 16.602568,36.3292108 16.5428571,36.3 L16.5428571,36.3 Z" id="Shape"></path>
            <path d="M26.0142857,42.8571429 C25.7841015,42.8458354 25.5602226,42.9343457 25.4,43.1 C25.2199868,43.3314667 25.1333281,43.6220282 25.1571429,43.9142857 C25.1304307,44.2068393 25.2174006,44.4984441 25.4,44.7285714 C25.5532449,44.8972423 25.7721729,44.9910685 26,44.9857143 C26.2278271,44.9910685 26.4467551,44.8972423 26.6,44.7285714 C26.7822093,44.4927185 26.8689156,44.1968969 26.8428571,43.9 C26.8684873,43.6142175 26.7870266,43.329105 26.6142857,43.1 C26.4584695,42.9365993 26.2398897,42.8481266 26.0142857,42.8571429 L26.0142857,42.8571429 Z" id="Shape"></path>
            <polygon id="Shape" points="10.8571429 37.4857143 11.3285714 37.4857143 11.0857143 36.8428571"></polygon>
            <path d="M0,0 L0,48.8714286 L52.1571429,48.8714286 L52.1571429,0 L0,0 Z M12.0428571,39.2857143 L11.7142857,38.4714286 L10.4857143,38.4714286 L10.1857143,39.2857143 L8.98571429,39.2857143 L10.5714286,35.3 L11.6142857,35.3 L13.2571429,39.2857143 L12.0428571,39.2857143 Z M11.8285714,31.9714286 L11.8285714,31.9714286 L10.5857143,27.1428571 L10.5857143,32.0142857 L8.77142857,32.0142857 L8.77142857,25.0857143 L11.6285714,25.0857143 L11.6285714,25.0857143 L12.6571429,29.0571429 L13.6857143,25.0571429 L16.5428571,25.0571429 L16.5428571,31.9285714 L14.7,31.9285714 L14.7,27.1428571 L13.4571429,32.0142857 L11.8285714,31.9714286 Z M16.9857143,39.2857143 L16.3857143,38.4142857 C16.2738122,38.2345643 16.1497113,38.0627322 16.0142857,37.9 C15.9705036,37.8547654 15.9166631,37.8205032 15.8571429,37.8 C15.7624102,37.7861241 15.6661612,37.7861241 15.5714286,37.8 L15.5714286,39.2857143 L14.4571429,39.2857143 L14.4571429,35.3 L16.2142857,35.3 C16.5279865,35.2868151 16.8417155,35.3254279 17.1428571,35.4142857 C17.3511928,35.4918255 17.5307063,35.6314471 17.6571429,35.8142857 C17.7935696,36.0164627 17.8634875,36.2561814 17.8571429,36.5 C17.8674692,36.8028732 17.7539898,37.0968879 17.5428571,37.3142857 C17.4207032,37.4339264 17.2746595,37.5264208 17.1142857,37.5857143 L17.2142857,37.6857143 C17.3846903,37.876426 17.5376817,38.0820082 17.6714286,38.3 L18.3,39.2857143 L16.9857143,39.2857143 Z M18.8428571,30.1428571 L18.8428571,26.9571429 L20.8285714,26.9571429 L20.8285714,29.7142857 C20.806287,29.9357066 20.8618535,30.1579726 20.9857143,30.3428571 C21.0977091,30.4684689 21.2604803,30.5367278 21.4285714,30.5285714 C21.6284341,30.5319784 21.8185091,30.4422207 21.9428571,30.2857143 C22.1071573,30.0160623 22.1774882,29.6995732 22.1428571,29.3857143 L22.1428571,26.9571429 L24.1142857,26.9571429 L24.1142857,31.9571429 L22.2857143,31.9571429 L22.2857143,31.2428571 C22.0842375,31.492192 21.8369391,31.7006985 21.5571429,31.8571429 C21.2458056,32.0076978 20.902834,32.0811917 20.5571429,32.0714286 C20.0882084,32.0949297 19.6313157,31.918403 19.3,31.5857143 C18.9675984,31.1759486 18.8040948,30.6547807 18.8428571,30.1285714 L18.8428571,30.1428571 Z M22.8571429,38.0428571 C22.7636228,38.4360243 22.5363749,38.7844711 22.2142857,39.0285714 C21.8946529,39.2453627 21.5145853,39.3553822 21.1285714,39.3428571 C20.645423,39.3590255 20.1763626,39.1786177 19.8285714,38.8428571 C19.4355009,38.4339055 19.2287326,37.8808003 19.2571429,37.3142857 C19.2230117,36.7298484 19.4294821,36.1568932 19.8285714,35.7285714 C20.1906404,35.3772711 20.6817587,35.1911631 21.1857143,35.2142857 C21.6045635,35.2042704 22.013787,35.3406782 22.3428571,35.6 C22.590008,35.812947 22.7647559,36.0975364 22.8428571,36.4142857 L22.8428571,36.6 L21.7285714,36.8571429 L21.7285714,36.6857143 C21.701312,36.5491335 21.6251099,36.42721 21.5142857,36.3428571 C21.4017057,36.2635364 21.266191,36.2233839 21.1285714,36.2285714 C20.9273752,36.223501 20.7341096,36.3070753 20.6,36.4571429 C20.4315726,36.6987236 20.3555268,36.9927676 20.3857143,37.2857143 C20.3560902,37.587596 20.4317991,37.8904317 20.6,38.1428571 C20.7284783,38.2923145 20.9172546,38.376215 21.1142857,38.3714286 C21.2607968,38.3755347 21.4035231,38.324561 21.5142857,38.2285714 C21.6485459,38.0974375 21.7384533,37.9276125 21.7714286,37.7428571 L21.7714286,37.5571429 L22.8571429,37.9 L22.8571429,38.0428571 Z M27.3428571,45.4428571 C26.9546934,45.7972247 26.4387142,45.9778174 25.9142857,45.9428571 C25.3900849,45.976152 24.8747387,45.7957808 24.4857143,45.4428571 C24.0821911,45.0338255 23.8695775,44.4737703 23.9,43.9 C23.8838049,43.4985029 23.9724262,43.0997072 24.1571429,42.7428571 C24.3185674,42.4472592 24.5615449,42.2042817 24.8571429,42.0428571 C25.1760346,41.8833767 25.5292912,41.8048753 25.8857143,41.8142857 C26.4155249,41.7958006 26.9304537,41.9914736 27.3142857,42.3571429 C27.7013905,42.763156 27.9030823,43.3113439 27.8714286,43.8714286 C27.9372585,44.4377963 27.7667209,45.0062547 27.4,45.4428571 L27.3428571,45.4428571 Z M26.6285714,36.7142857 L26.6285714,35.2857143 L27.7428571,35.2857143 L27.7428571,39.2857143 L26.6285714,39.2857143 L26.6285714,37.7 L25.5285714,37.7 L25.5285714,39.2857143 L24.4142857,39.2857143 L24.4142857,35.3 L25.5285714,35.3 L25.5285714,36.7285714 L26.6285714,36.7142857 Z M28.6428571,28.6857143 C28.4088639,29.1796539 28.3102644,29.7268815 28.3571429,30.2714286 L28.3571429,31.9571429 L26.4428571,31.9571429 L26.4428571,26.9571429 L28.3,26.9571429 L28.3,27.6285714 C28.410225,27.4078905 28.5660401,27.2131216 28.7571429,27.0571429 C29.2557886,26.7473011 29.8870685,26.7473011 30.3857143,27.0571429 L30.3857143,27.0571429 L29.7714286,28.4857143 L29.7714286,28.4857143 C29.6104974,28.4062082 29.436024,28.3577434 29.2571429,28.3428571 C29.019978,28.336946 28.8016,28.4713325 28.7,28.6857143 L28.6428571,28.6857143 Z M29.4,35.3 L30.5142857,35.3 L30.5142857,39.2857143 L29.4,39.2857143 L29.4,35.3 Z M32.4,42.8571429 L30.6,42.8571429 L30.6,43.3428571 L32.1571429,43.3428571 L32.1571429,44.2857143 L30.6,44.2857143 L30.6,45.8285714 L29.4857143,45.8285714 L29.4857143,41.9 L32.3428571,41.9 L32.4,42.8571429 Z M35.2571429,28.1714286 C35.1211199,28.0721351 34.9533138,28.0263698 34.7857143,28.0428571 C34.5530399,28.0280141 34.3207638,28.0774346 34.1142857,28.1857143 C33.9807329,28.2902218 33.8853379,28.4358246 33.8428571,28.6 L33.8428571,28.6 L33.8428571,28.6 L32,28.4 L32,28.4 C32.0489124,28.1302537 32.1508829,27.8728997 32.3,27.6428571 C32.445892,27.4365392 32.6363009,27.2656594 32.8571429,27.1428571 C33.0860586,27.027811 33.3321046,26.9506201 33.5857143,26.9142857 C33.9112623,26.8578271 34.2410216,26.8291523 34.5714286,26.8285714 C35.0496664,26.8185075 35.5278281,26.8519789 36,26.9285714 C36.3212994,26.9806619 36.6224613,27.1189002 36.8714286,27.3285714 C37.0507074,27.4967393 37.1835612,27.7083213 37.2571429,27.9428571 C37.3475757,28.1802911 37.3959187,28.4316743 37.4,28.6857143 L37.4,30.8571429 C37.3819443,31.0328708 37.3819443,31.2099864 37.4,31.3857143 C37.443135,31.5587635 37.5054243,31.7264655 37.5857143,31.8857143 L37.5857143,31.8857143 L35.7142857,31.8857143 L35.7142857,31.8857143 C35.6576608,31.790257 35.6098444,31.6898425 35.5714286,31.5857143 C35.5657348,31.504862 35.5657348,31.4237094 35.5714286,31.3428571 C35.3705701,31.5331909 35.1386603,31.6877975 34.8857143,31.8 C34.5071265,31.9427087 34.1044521,32.0106297 33.7,32 C33.1882569,32.0507005 32.6766488,31.9023342 32.2714286,31.5857143 C31.9666059,31.3258105 31.7937315,30.9433912 31.8,30.5428571 C31.7930464,30.1925605 31.9150658,29.8519232 32.1428571,29.5857143 C32.4903983,29.2772385 32.9241911,29.0827797 33.3857143,29.0285714 L34.8142857,28.7285714 L35.4428571,28.5142857 C35.4179084,28.3876362 35.3527802,28.2724094 35.2571429,28.1857143 L35.2571429,28.1714286 Z M31.9285714,36.2571429 L31.9285714,35.2714286 L35.2428571,35.2714286 L35.2428571,36.2571429 L34.1428571,36.2571429 L34.1428571,39.2857143 L33.0285714,39.2857143 L33.0285714,36.2714286 L31.9285714,36.2571429 Z M36.8285714,42.8571429 L35.0285714,42.8571429 L35.0285714,43.3428571 L36.5857143,43.3428571 L36.5857143,44.2857143 L35.0285714,44.2857143 L35.0285714,45.8285714 L33.9142857,45.8285714 L33.9142857,41.9 L36.7714286,41.9 L36.8285714,42.8571429 Z M39.4428571,45.8714286 L38.3285714,45.8714286 L38.3285714,41.9 L39.4428571,41.9 L39.4428571,45.8714286 Z M39.8142857,39.2714286 L36.6142857,39.2714286 L36.6142857,35.3 L39.7428571,35.3 L39.7428571,36.2857143 L37.7428571,36.2857143 L37.7428571,36.7142857 L39.6142857,36.7142857 L39.6142857,37.6857143 L37.7428571,37.6857143 L37.7428571,38.3 L39.8142857,38.3 L39.8142857,39.2714286 Z M42.2714286,44.7142857 C42.3999069,44.863743 42.5886832,44.9476436 42.7857143,44.9428571 C42.9322254,44.9469632 43.0749516,44.8959896 43.1857143,44.8 C43.3201286,44.6593289 43.4053372,44.4788871 43.4285714,44.2857143 L43.4285714,44.1 L44.5142857,44.4428571 L44.5142857,44.6142857 C44.424497,45.0054258 44.2024755,45.3535959 43.8857143,45.6 C43.5660815,45.8167912 43.1860138,45.9268108 42.8,45.9142857 C42.3168516,45.9304541 41.8477911,45.7500463 41.5,45.4142857 C41.1069295,45.0053341 40.9001612,44.4522289 40.9285714,43.8857143 C40.8944403,43.301277 41.1009107,42.7283218 41.5,42.3 C41.8620689,41.9486997 42.3531873,41.7625916 42.8571429,41.7857143 C43.2761732,41.774486 43.6857984,41.9110277 44.0142857,42.1714286 C44.2614366,42.3843755 44.4361844,42.6689649 44.5142857,42.9857143 L44.5142857,43.1714286 L43.4,43.4285714 L43.4,43.2571429 C43.3715313,43.1210452 43.2955742,42.9995139 43.1857143,42.9142857 C43.0833337,42.8660003 42.969814,42.8462578 42.8571429,42.8571429 C42.6559466,42.8520724 42.462681,42.9356467 42.3285714,43.0857143 C42.1613042,43.3278269 42.0853707,43.6214363 42.1142857,43.9142857 C42.0784403,44.1955285 42.1335049,44.480863 42.2714286,44.7285714 L42.2714286,44.7142857 Z M42.5571429,38.1142857 C42.6856212,38.263743 42.8743975,38.3476436 43.0714286,38.3428571 C43.2179397,38.3469632 43.3606659,38.2959896 43.4714286,38.2 C43.6056888,38.0688661 43.6955961,37.8990411 43.7285714,37.7142857 L43.7285714,37.5285714 L44.8142857,37.8714286 L44.8142857,38.0428571 C44.7218842,38.4365038 44.4944075,38.7853014 44.1714286,39.0285714 C43.8517958,39.2453627 43.4717281,39.3553822 43.0857143,39.3428571 C42.6025659,39.3590255 42.1335054,39.1786177 41.7857143,38.8428571 C41.3926437,38.4339055 41.1858754,37.8808003 41.2142857,37.3142857 C41.1801546,36.7298484 41.3866249,36.1568932 41.7857143,35.7285714 C42.1477832,35.3772711 42.6389016,35.1911631 43.1428571,35.2142857 C43.5618875,35.2030574 43.9715127,35.3395992 44.3,35.6 C44.5471509,35.812947 44.7218987,36.0975364 44.8,36.4142857 L44.8,36.6 L43.6857143,36.8571429 L43.6857143,36.6857143 C43.6584549,36.5491335 43.5822527,36.42721 43.4714286,36.3428571 C43.3588485,36.2635364 43.2233338,36.2233839 43.0857143,36.2285714 C42.884518,36.223501 42.6912524,36.3070753 42.5571429,36.4571429 C42.3887155,36.6987236 42.3126696,36.9927676 42.3428571,37.2857143 C42.3177045,37.5827507 42.3931786,37.8796156 42.5571429,38.1285714 L42.5571429,38.1142857 Z M43.2428571,31.9571429 L42.2571429,30 L41.6,30.6428571 L41.6,31.9428571 L39.5857143,31.9428571 L39.5857143,25.0857143 L41.6,25.0857143 L41.6,28.5714286 L42.9428571,27.0142857 L45.3857143,27.0142857 L45.3142857,27.0857143 L43.5714286,28.7285714 L45.4571429,31.9571429 L43.2428571,31.9571429 Z M49.2571429,45.8714286 L46.0571429,45.8714286 L46.0571429,41.9 L49.1857143,41.9 L49.1857143,42.8571429 L47.1428571,42.8571429 L47.1428571,43.2857143 L49.0142857,43.2857143 L49.0142857,44.2857143 L47.1428571,44.2857143 L47.1428571,44.9 L49.2142857,44.9 L49.2571429,45.8714286 Z M49.4,36.2571429 L48.3,36.2571429 L48.3,39.2857143 L47.1428571,39.2857143 L47.1428571,36.2714286 L46.0428571,36.2714286 L46.0428571,35.2857143 L49.3571429,35.2857143 L49.4,36.2571429 Z M49.1857143,26.9428571 L49.1857143,31.9428571 L47.2142857,31.9428571 L47.2142857,26.9428571 L49.1857143,26.9428571 Z M47.2142857,26.4428571 L47.2142857,25.0142857 L49.1857143,25.0142857 L49.1857143,26.4428571 L47.2142857,26.4428571 Z M50.2857143,22.8571429 L45.6,22.8571429 L45.6,8.57142857 L28.0428571,19.3857143 L25.6142857,19.3857143 L6.82857143,8.2 L6.82857143,46.8428571 L2.12857143,46.8428571 L2.12857143,4.05714286 L5.71428571,2.04285714 L26.8142857,14.6428571 L46.7142857,2.38571429 L50.2857143,4.38571429 L50.2857143,22.8571429 Z" id="Shape"></path>
            <path d="M33.9142857,30.1714286 C33.8260476,30.2550582 33.7760695,30.3712846 33.7760695,30.4928571 C33.7760695,30.6144296 33.8260476,30.7306561 33.9142857,30.8142857 C34.0358994,30.9094971 34.1889165,30.9554022 34.3428571,30.9428571 C34.5425435,30.9459837 34.7395632,30.8967288 34.9142857,30.8 C35.0707533,30.720393 35.2000348,30.5960838 35.2857143,30.4428571 C35.3673778,30.2688088 35.4065473,30.0778572 35.4,29.8857143 L35.4,29.6428571 L34.6428571,29.8714286 C34.3812123,29.9177349 34.1326753,30.0200737 33.9142857,30.1714286 L33.9142857,30.1714286 Z" id="Shape"></path>
        </g>
    </g>
</svg>