<svg xmlns="http://www.w3.org/2000/svg" viewBox="0 0 20 18.41"><defs><style>.cls-1{fill:#4c4948;}</style></defs><title>mail</title><g id="レイヤー_2" data-name="レイヤー 2"><g id="レイヤー_1-2" data-name="レイヤー 1"><path id="_パス_" data-name="&lt;パス&gt;" class="cls-1" d="M9.4.19,1.68,5.52a.2.2,0,0,0,0,.33L9.4,11.17a1.07,1.07,0,0,0,1.2,0l7.72-5.33a.2.2,0,0,0,0-.33L10.6.19A1.06,1.06,0,0,0,9.4.19Z"/><path class="cls-1" d="M19.4,6l-9.19,6.34a.36.36,0,0,1-.42,0L.6,6A1.57,1.57,0,0,0,0,7.25v9.59a1.57,1.57,0,0,0,1.57,1.57H18.43A1.57,1.57,0,0,0,20,16.84V7.24A1.55,1.55,0,0,0,19.4,6ZM7.25,12.17,2.6,16.82a.19.19,0,0,1-.26-.26L7,11.91a.19.19,0,0,1,.26,0A.18.18,0,0,1,7.25,12.17Zm10.42,4.64a.18.18,0,0,1-.26,0l-4.64-4.64a.19.19,0,0,1,.26-.26l4.64,4.64A.19.19,0,0,1,17.67,16.82Z"/></g></g></svg>