<?xml version="1.0" encoding="UTF-8"?>
<svg width="20px" height="237px" viewBox="0 0 20 237" version="1.1" xmlns="http://www.w3.org/2000/svg" xmlns:xlink="http://www.w3.org/1999/xlink">
    <!-- Generator: Sketch 46.2 (44496) - http://www.bohemiancoding.com/sketch -->
    <title>txt_side_contact</title>
    <desc>Created with Sketch.</desc>
    <defs></defs>
    <g id="トップページと共通パーツ" stroke="none" stroke-width="1" fill="none" fill-rule="evenodd">
        <path d="M19.4,6.92 L18.38,8.54 C16.96,8.16 16.26,7.82 15.42,7.38 C15.4,7.72 15.34,9.28 15.34,9.58 L15.34,12.2 C15.34,13.34 15.42,14.46 15.56,15.58 C14.98,15.54 14.86,15.54 14.54,15.54 C15.88,16.34 17.34,16.92 18.9,17.1 L17.8,18.88 C15.86,18.54 14.12,17.72 12.62,16.36 L13.3,15.5 C12.58,15.48 12.56,15.48 12.04,15.48 L7.2,15.48 L7.7,16.06 C7.86,16.24 7.88,16.26 7.88,16.36 C7.88,16.48 7.8,16.64 7.62,16.64 C7.6,16.64 7.32,16.6 7.28,16.6 C5.82,17.72 3.78,18.64 2.72,18.78 L1.24,17.26 C3.6,16.86 4.5,16.32 5.68,15.52 C5.06,15.54 5,15.56 4.44,15.58 C4.56,14.54 4.6,12.78 4.6,12.56 L4.6,9.7 C4.6,8.7 4.56,7.52 4.46,6.52 C3.94,6.82 3.06,7.34 2.9,7.44 C2.86,7.52 2.74,7.94 2.7,8.02 C2.66,8.1 2.58,8.1 2.56,8.1 C2.52,8.1 2.26,8.08 2.08,7.76 L1.08,5.96 C2,5.86 2.84,5.48 3.66,5.04 C4.54,4.58 5.82,3.9 6.32,3.66 L6.32,5.42 C6.02,5.56 4.76,6.34 4.52,6.5 C5.06,6.52 6.22,6.56 6.58,6.58 L6.1,5.9 C6.94,5.72 9.4,5.16 10.78,2.76 L9.8,2.76 C9.04,3.78 8.52,4.12 8.22,4.34 L6.7,3.48 C7.5,3 8.78,1.8 9.22,0.22 L10.8,0.58 C11.16,0.66 11.2,0.68 11.2,0.8 C11.2,1.02 10.96,1.08 10.8,1.14 C10.68,1.4 10.68,1.4 10.62,1.5 L13.62,1.5 C14.24,1.5 16.96,1.44 17.5,1.42 L18.2,2.02 C17.08,4.12 16.94,4.36 16.5,5.28 L14.9,4.42 C15.34,3.84 15.44,3.64 15.86,2.78 L12.92,2.78 C13.82,4.64 16.06,6.32 19.4,6.92 Z M13.66,9.12 L13.66,8.02 L6.26,8.02 L6.26,9.12 L13.66,9.12 Z M13.66,11.54 L13.66,10.46 L6.26,10.46 L6.26,11.54 L13.66,11.54 Z M13.66,14.02 L13.66,12.88 L6.26,12.88 L6.26,14.02 L13.66,14.02 Z M14.12,6.54 C12.92,5.66 12.3,4.92 11.78,4.22 C11.38,4.66 10.5,5.68 9.1,6.58 L12.04,6.58 C12.34,6.58 13.78,6.56 14.12,6.54 Z M6.1,1.4 L5.52,3.1 C4.46,2.58 3.52,2.24 1.9,1.84 L2.5,0.26 C3.72,0.52 4.96,0.84 6.1,1.4 Z M14.2,25 L13.12,26.5 C12.38,25.72 11.74,25.3 10.56,24.84 L11.66,23.26 C12.62,23.7 13.34,24.14 14.2,25 Z M19.42,32.08 C17.86,32.32 17.7,32.36 17.08,32.48 L17.08,34.24 C17.08,36.3 17.16,38.36 17.22,40.42 L15.2,40.42 C15.26,38.7 15.32,36.56 15.32,34.22 L15.32,32.96 L13.22,33.56 C12.42,33.78 11.14,34.24 10.34,34.48 L9.96,32.22 C10.92,32.1 11.92,31.96 13.14,31.66 L15.32,31.12 L15.32,26.9 C15.32,25.94 15.32,25.16 15.22,22.3 L17.34,22.52 C17.56,22.54 17.6,22.7 17.6,22.84 C17.6,23.06 17.54,23.1 17.18,23.3 C17.12,25.12 17.08,25.66 17.08,26.82 L17.08,30.66 C17.88,30.42 18.02,30.38 19.18,30 L19.42,32.08 Z M13.84,29.16 L12.7,30.56 C12.02,29.86 11.42,29.4 10.14,28.8 L11.36,27.42 C12.72,28.04 13.36,28.62 13.84,29.16 Z M10.14,24.88 C10.14,25.14 10,25.18 9.54,25.3 C8.86,26.98 8.44,27.56 8.18,27.94 L6.56,27.2 C6.94,26.68 7.54,25.86 8.1,23.94 L9.98,24.66 C10.06,24.68 10.14,24.76 10.14,24.88 Z M4.1,26.96 L2.52,27.82 C1.9,25.76 1.3,25.08 1,24.7 L2.56,23.74 C3.32,24.76 3.76,25.64 4.1,26.96 Z M9.6,34.1 L8.66,35.72 C8.48,35.54 7.68,34.76 7.52,34.6 C7.04,34.14 6.76,33.82 6.48,33.5 L6.48,35.1 C6.48,36.4 6.5,37.1 6.6,40.42 L4.72,40.42 C4.8,38.64 4.86,36.86 4.86,35.06 L4.86,33.4 C4.32,34.52 3.5,36.06 2.08,37.24 L0.46,35.98 C2.36,34.56 3.66,32.5 4.42,30.24 L4,30.24 C3.98,30.24 2.5,30.26 1.3,30.42 L1.3,28.46 C2.24,28.58 3.58,28.62 4,28.62 L4.86,28.62 L4.86,27.44 C4.86,25.82 4.8,23.62 4.76,22.36 L6.72,22.62 C6.88,22.64 7.08,22.66 7.08,22.88 C7.08,22.92 7.08,23.04 6.98,23.12 C6.92,23.16 6.64,23.36 6.58,23.4 C6.54,24.6 6.48,25.94 6.48,27.36 L6.48,28.62 C7.12,28.62 8.4,28.6 9.38,28.46 L9.38,30.42 C8.38,30.28 7.2,30.24 6.48,30.24 L6.48,30.56 C6.92,31.32 7.56,32.42 9.6,34.1 Z M17.76,53.1 C17.7,53.52 17.68,53.78 17.68,55.7 L17.68,59.48 C17.68,60.88 17.68,61.04 17.58,61.44 C17.36,62.46 16.08,62.46 15.6,62.46 C15.26,62.46 14.98,62.44 14.74,62.42 L13.66,60.44 C14.56,60.68 15.34,60.7 15.38,60.7 C15.94,60.7 15.94,60.62 15.94,59.2 L10.88,59.2 C10.9,60.8 10.9,60.88 11.02,62.42 L9.1,62.42 C9.18,61.68 9.2,60.36 9.2,59.62 L9.2,55.7 C9.2,55.3 9.18,53.48 9.16,53.12 C10.48,53.2 10.64,53.24 12.16,53.24 L15.2,53.24 C15.28,53.24 16.48,53.2 17.76,53.1 Z M15.94,55.58 L15.94,54.68 L10.88,54.68 L10.88,55.58 L15.94,55.58 Z M15.94,57.86 L15.94,56.8 L10.88,56.8 L10.88,57.86 L15.94,57.86 Z M7.28,62.12 L5.4,62.12 C5.4,62.02 5.44,61.56 5.46,61.48 L3.26,61.48 C3.28,61.94 3.3,62 3.32,62.42 L1.6,62.42 C1.64,61.42 1.66,60.82 1.66,60 L1.66,57.96 C1.66,57.28 1.64,56.6 1.62,55.9 C1.9,55.94 3.12,55.96 3.52,55.96 L5.54,55.96 C6.06,55.96 6.8,55.92 7.22,55.9 C7.22,56.36 7.2,57.14 7.2,57.62 L7.2,59.96 C7.2,60.7 7.22,60.94 7.28,62.12 Z M5.52,59.96 L5.52,57.48 L3.26,57.48 L3.26,59.96 L5.52,59.96 Z M19.06,52.46 L19.06,50.76 C17.82,50.84 16.14,50.88 15.36,50.88 L14.48,50.88 L14.48,49.88 L15.04,49.88 C15.66,49.88 16.82,49.92 17.9,50 L17.9,48.36 C17.02,48.48 15.96,48.48 15.04,48.48 L14.48,48.48 L14.48,47.52 L15.26,47.52 C15.96,47.52 17.28,47.56 18.68,47.64 L18.68,46.02 C17.62,46.12 16.36,46.12 15.26,46.12 L14.48,46.12 C14.48,45.96 14.5,45.16 14.5,44.98 C14.68,44.88 14.9,44.74 14.9,44.56 C14.9,44.38 14.66,44.36 14.48,44.36 L12.64,44.3 C12.64,44.8 12.66,45.62 12.68,46.12 L11.82,46.12 C10.72,46.12 9.48,46.12 8.44,46.02 L8.44,47.64 C10.3,47.54 11.58,47.52 11.82,47.52 L12.7,47.52 L12.7,48.48 L12.14,48.48 C11.24,48.48 10.18,48.48 9.32,48.36 L9.32,50 C10.86,49.88 11.94,49.88 12.14,49.88 L12.7,49.88 L12.7,50.88 L11.68,50.88 C10.86,50.88 9.18,50.84 7.98,50.76 L7.98,52.46 C9.24,52.38 11.02,52.34 11.68,52.34 L15.36,52.34 C16.1,52.34 17.92,52.38 19.06,52.46 Z M7.24,46.76 L7.24,44.96 C6.46,45.12 5.42,45.12 5.4,45.12 L3.54,45.12 C3.46,45.12 2.44,45.12 1.68,44.96 L1.68,46.76 C2.24,46.64 2.94,46.64 3.54,46.64 L5.4,46.64 C5.96,46.64 6.68,46.64 7.24,46.76 Z M7.96,49.44 L7.96,47.64 C6.98,47.82 5.66,47.82 5.62,47.82 L3.28,47.82 C3.18,47.82 1.88,47.8 0.94,47.64 L0.94,49.44 C1.62,49.34 2.54,49.34 3.28,49.34 L5.62,49.34 C6.34,49.34 7.24,49.34 7.96,49.44 Z M7.24,52.14 L7.24,50.34 C6.44,50.5 5.38,50.5 5.38,50.5 L3.5,50.5 C3.44,50.5 2.38,50.5 1.64,50.34 L1.64,52.14 C2.18,52.02 2.9,52.02 3.5,52.02 L5.38,52.02 C5.94,52.02 6.66,52.02 7.24,52.14 Z M7.24,54.78 L7.24,52.98 C6.44,53.14 5.38,53.14 5.38,53.14 L3.5,53.14 C3.44,53.14 2.38,53.14 1.64,52.98 L1.64,54.78 C2.18,54.66 2.9,54.66 3.5,54.66 L5.38,54.66 C5.94,54.66 6.66,54.66 7.24,54.78 Z M16.48,68.62 L15.02,69.7 C14.62,69.12 13.98,68.22 12.74,67.44 L14.24,66.34 C15.58,67.32 15.98,67.84 16.48,68.62 Z M18.8,81.94 L17.18,83.52 C15.04,82.28 12.16,79.5 10.86,76.48 L10.86,77.32 C10.86,78.06 10.9,81.36 10.9,82.02 C10.9,83.8 10.58,84.42 8.12,84.42 C7.6,84.42 7.4,84.4 7.08,84.36 L6.28,82.36 C7.08,82.5 7.42,82.54 8.02,82.54 C9,82.54 9,82.28 9,81.48 L9,71.62 L7.12,71.62 C5.2,71.62 3.28,71.66 1.36,71.78 L1.36,69.82 C3.36,69.96 6.24,69.98 7.12,69.98 L9,69.98 C9,68.66 9,68.62 8.92,66.38 L11.04,66.5 C11.26,66.52 11.46,66.54 11.46,66.74 C11.46,66.92 11.34,66.98 10.98,67.18 C10.96,67.64 10.88,69.58 10.88,69.98 L12.84,69.98 C14.78,69.98 16.74,69.96 18.68,69.82 L18.68,71.78 C16.16,71.62 13.06,71.62 12.84,71.62 L10.86,71.62 C10.86,72.16 11.5,74.16 12.7,76.14 C14.54,74.36 15.06,73.32 15.3,72.8 L17.24,73.76 C17.32,73.82 17.42,73.88 17.42,74 C17.42,74.26 17.06,74.26 16.78,74.26 C15.8,75.52 15.18,76.32 13.7,77.68 C15.38,79.9 17.32,81.3 18.8,81.94 Z M6.82,75.8 L5.26,77.04 C4.32,75.06 3.02,73.94 2.72,73.74 L4.24,72.56 C5.5,73.62 6.46,75 6.82,75.8 Z M8.36,77.82 C6.6,79.7 4.92,81.04 3,82.26 C3,82.48 3,82.86 2.76,82.86 C2.62,82.86 2.54,82.74 2.46,82.64 L1.18,80.62 C4,79.38 6.16,77.84 8.14,76.08 L8.36,77.82 Z M10,95.46 C8.94,95.46 8.06,96.32 8.06,97.4 C8.06,98.46 8.92,99.34 10,99.34 C11.06,99.34 11.94,98.48 11.94,97.4 C11.94,96.3 11.04,95.46 10,95.46 Z M18.62,117.22 L17.5,118.74 C16.06,117.28 14.86,116.42 13.46,115.86 L14.74,114.48 C16.4,115.5 17.34,116.14 18.62,117.22 Z M17.48,122.98 C17.48,125.24 15.92,127.46 13.44,127.46 C11.22,127.46 10.6,126.02 10.14,125 L11.62,123.96 C11.8,124.64 12.06,125.68 13.38,125.68 C14.6,125.68 15.5,124.52 15.5,123.16 C15.5,121.76 14.58,120.42 12.48,120.42 C10.9,120.42 9.54,121.16 8.74,121.58 C8.74,122.06 8.78,125.16 8.78,125.3 C8.78,126.14 8.78,127.4 7.76,127.4 C6.86,127.4 6.34,126.9 5.96,126.52 C5.42,126 4.52,125.1 4,124.64 C3.64,124.9 3.62,124.98 3.54,125.3 C3.54,125.36 3.48,125.42 3.42,125.42 C3.36,125.42 3.18,125.24 3.18,125.22 L1.78,123.58 C2.6,123.2 3.46,122.76 5.28,121.62 C6.4,120.92 6.5,120.86 7.06,120.56 L7.06,117.16 C5.2,117.3 4.52,117.32 3.6,117.28 L3.28,115.38 C3.92,115.46 4.54,115.56 5.44,115.56 C6.12,115.56 6.6,115.5 7.1,115.44 C7.08,114.94 7.06,112.8 7.06,112.36 C7.04,111.86 7.02,111.52 7,111.16 L8.88,111.58 C9.16,111.64 9.54,111.72 9.54,112.02 C9.54,112.18 9.48,112.22 9,112.56 C8.94,113.24 8.92,113.44 8.84,115.08 C9.5,114.98 11.12,114.7 12.54,113.92 L12.54,115.84 C11.38,116.38 10.06,116.62 8.78,116.86 L8.78,119.72 C9.68,119.38 11.22,118.78 12.8,118.78 C16.8,118.78 17.48,121.78 17.48,122.98 Z M6.98,123.98 L6.98,122.6 C6.68,122.78 5.46,123.56 4.78,124.08 C5.04,124.28 6.44,125.3 6.68,125.3 C6.96,125.3 6.96,125.14 6.96,124.9 L6.98,123.98 Z M18.36,132.68 C18.32,133.94 18.3,135.22 18.3,135.4 L18.3,148.38 C18.3,150.44 17.04,150.44 16.2,150.44 C15.64,150.44 15.1,150.42 14.56,150.36 L13.92,148.28 C14.44,148.4 15.48,148.56 15.64,148.56 C16.32,148.56 16.46,148.02 16.46,147.54 L16.46,139.54 L13.68,139.54 C13.2,139.54 12.54,139.58 12.1,139.58 C11.42,139.58 10.94,139.6 10.66,139.6 C10.76,138.88 10.78,137.88 10.78,137.3 L10.78,135.04 C10.78,134.16 10.78,133.9 10.72,132.66 C11.34,132.7 12.56,132.76 13.2,132.76 L15.64,132.76 C16.06,132.76 17.84,132.7 18.36,132.68 Z M16.46,135.44 L16.46,134.16 L12.62,134.16 L12.62,135.44 L16.46,135.44 Z M16.46,138.12 L16.46,136.82 L12.62,136.82 L12.62,138.12 L16.46,138.12 Z M9.16,139.62 C8.58,139.58 6.8,139.54 6.2,139.54 L3.48,139.54 L3.48,145.96 C3.48,147.44 3.54,148.9 3.6,150.36 L1.54,150.36 C1.58,149.36 1.64,147.6 1.64,146.02 L1.64,135.36 C1.64,134.48 1.6,133.46 1.56,132.58 C2.18,132.66 3.12,132.76 4.16,132.76 L6.48,132.76 C7.38,132.76 8.26,132.7 9.14,132.64 C9.12,133.02 9.08,134.78 9.08,135.18 L9.08,137.16 C9.08,137.26 9.16,139.22 9.16,139.62 Z M7.24,135.44 L7.24,134.16 L3.48,134.16 L3.48,135.44 L7.24,135.44 Z M7.24,138.12 L7.24,136.82 L3.48,136.82 L3.48,138.12 L7.24,138.12 Z M13.98,140.76 C13.9,141.54 13.9,142.6 13.9,143.5 L13.9,144.7 C13.9,145.16 13.9,145.92 13.92,147.3 C13.22,147.26 12.22,147.2 11.2,147.2 L7.72,147.2 C7.7,147.46 7.76,148.14 7.8,148.38 L5.7,148.38 C5.84,147.62 5.86,146.7 5.86,145.54 L5.86,143.26 C5.86,142.56 5.84,141.36 5.78,140.76 C6.46,140.82 8.04,140.88 8.74,140.88 L11.2,140.88 C11.68,140.88 13.56,140.82 13.98,140.76 Z M12.04,145.62 L12.04,142.44 L7.68,142.44 L7.68,145.62 L12.04,145.62 Z M18.42,165.48 C18.3,163.7 16.98,159.64 14.92,157.14 L13.1,158 C13.48,158.46 13.94,159.02 14.98,161.2 C15.72,162.76 16.14,164.44 16.2,166.16 L18.42,165.48 Z M9.14,165.7 L7.98,164.48 C7.76,165.56 7.16,167.82 6.2,167.82 C5.24,167.82 3.88,165.36 3.88,162.08 C3.88,160.34 4.18,159.14 4.34,158.52 C4.62,158.38 4.84,158.28 4.84,158.1 C4.84,157.9 4.62,157.82 4.22,157.68 L2.4,157.04 C2.38,157.12 2.36,157.48 2.34,157.56 C1.98,160.8 1.94,161.16 1.94,161.94 C1.94,165.14 2.6,167.14 4.1,168.92 C4.46,169.34 5.36,170.32 6.42,170.32 C7.94,170.32 8.74,167.5 9.14,165.7 Z M19.54,184.24 L18.24,185.9 C17.14,185.5 16.12,184.92 15.16,184.26 L15.16,185.18 C14.26,185.14 12.6,185.1 11.68,185.1 L8.04,185.1 C7.24,185.1 5.86,185.12 5.06,185.16 L5.06,184.06 C3.58,185.16 2.46,185.64 2,185.86 L0.38,184.24 C2.44,183.64 4.62,182.02 5.66,181.06 C7.46,179.38 8.46,177.6 9.14,176.24 L11.52,177.06 C11.76,177.14 11.94,177.2 11.94,177.4 C11.94,177.58 11.78,177.66 11.52,177.8 C12.24,179.44 14.22,181.16 14.72,181.56 C16.38,182.94 17.52,183.4 19.54,184.24 Z M13.94,183.34 C12.38,182.1 11.04,180.6 9.96,178.92 C8.06,181.62 6.14,183.18 5.96,183.32 C7.66,183.4 7.86,183.42 7.96,183.42 L11.52,183.42 C12.02,183.42 13.26,183.38 13.94,183.34 Z M15.66,194.48 L13.7,194.48 C13.74,193.94 13.74,193.86 13.76,193.52 L6.5,193.52 C6.5,193.58 6.54,194.4 6.56,194.48 L4.6,194.48 C4.64,194.14 4.7,192.46 4.7,192.1 L4.7,188.92 C4.7,188.2 4.66,187.48 4.58,186.78 C5.28,186.82 6.52,186.88 7.84,186.88 L11.94,186.88 C12.66,186.88 13.44,186.88 15.66,186.76 C15.62,187.62 15.6,188.52 15.6,189.06 L15.6,191.8 C15.6,192.54 15.64,193.72 15.66,194.48 Z M13.82,191.82 L13.82,188.56 L6.46,188.56 L6.46,191.82 L13.82,191.82 Z M18.12,208.78 C18.12,206.12 16.52,203.4 12.94,203.4 C10.92,203.4 9.28,204.34 8.36,204.88 C8.94,203.9 9.58,203.12 9.9,202.74 L8.58,201.9 C8.34,202.02 8.24,202.06 7.86,202.22 C7.86,202.06 7.98,200.3 8,200.04 C8.08,200 8.52,199.82 8.6,199.76 C8.68,199.72 8.84,199.64 8.84,199.42 C8.84,199.26 8.7,199.18 8.54,199.16 L6.1,198.86 C6.16,200.64 6.18,201 6.2,202.78 C5.02,203.12 3.8,203.36 2.58,203.54 L2.94,205.48 C3.72,205.2 4.96,204.74 6.22,204.44 L6.22,205.6 C5.34,207.28 4.76,208.36 2.14,211.34 L3.56,212.74 C4.38,211.48 5.24,210.24 6.22,209.08 L6.22,209.98 C6.22,211.92 6.12,213.92 5.9,215.64 L8.08,215.64 C7.78,212.78 7.78,211.46 7.78,209.98 L7.78,207.36 C9.12,206.06 10.78,205.04 12.66,205.04 C15.12,205.04 16.22,206.8 16.22,208.56 C16.22,210.88 14.42,213.18 10.96,213.46 L12.38,215.42 C16.8,214.22 18.12,211.1 18.12,208.78 Z M18.18,227.46 L18.18,225.4 C17.12,225.74 15.08,226.08 14.26,226.22 C14.32,223.92 14.38,223.5 14.5,222.86 C14.98,222.56 15.06,222.5 15.06,222.22 C15.06,221.98 14.76,221.96 14.58,221.94 L12.54,221.82 C12.58,222.42 12.72,225.62 12.68,226.48 L7.4,227.3 C7.38,225.76 7.44,224.84 7.64,223.64 C8.08,223.36 8.3,223.22 8.3,223 C8.3,222.72 8.02,222.7 7.68,222.68 L5.4,222.56 C5.48,223.26 5.54,226.74 5.58,227.52 C4.94,227.64 3.26,227.92 1.62,227.86 L1.72,229.88 C2.94,229.54 4.46,229.24 5.62,229.1 C5.64,229.64 5.64,232.26 5.68,232.86 C5.74,234.04 5.82,235.94 7.4,236.48 C8.76,236.94 11.6,236.94 11.8,236.94 C12.64,236.94 13.16,236.9 15.66,236.7 L16.12,234.74 C14.44,235.34 12.2,235.36 11.36,235.36 C7.56,235.36 7.34,234.84 7.34,232.08 C7.34,230.98 7.36,229.88 7.38,228.8 L12.64,227.98 C12.68,229.2 12.52,229.96 12.5,230.12 C12.42,230.46 12.3,231 10.94,231 C10.28,231 9.84,230.84 9.4,230.68 L10.1,232.62 C10.88,232.66 12.72,232.72 13.44,231.98 C14.12,231.26 14.26,229.44 14.18,227.82 C15.62,227.56 17.2,227.4 17.62,227.4 C17.84,227.4 17.9,227.42 18.18,227.46 Z" id="資料請求-・-お問い合わせ" fill="#FFFFFF"></path>
    </g>
</svg>