<?xml version="1.0" encoding="UTF-8"?>
<svg width="222px" height="42px" viewBox="0 0 222 42" version="1.1" xmlns="http://www.w3.org/2000/svg" xmlns:xlink="http://www.w3.org/1999/xlink">
    <!-- Generator: Sketch 46.2 (44496) - http://www.bohemiancoding.com/sketch -->
    <title>txt_tel</title>
    <desc>Created with Sketch.</desc>
    <defs></defs>
    <g id="トップページと共通パーツ" stroke="none" stroke-width="1" fill="none" fill-rule="evenodd">
        <g id="Group-4" fill="#333333">
            <path d="M11.9999175,0 C7.72501909,0 3.43982958,0.765066968 1.88498589,2.28997278 C0.594960365,3.55506841 0.164933513,5.79000832 0.0199769321,7.20506853 C0.0199769321,7.20506853 0,7.34490705 0,7.40505798 C0,7.95995441 0.449893718,8.40500524 0.99994726,8.40500524 C1.06494108,8.40500524 3.46993256,8.20996875 4.91988361,8.08999709 C4.95477445,8.08493406 4.98994045,8.07998111 5.02483129,8.07002016 C5.56486885,8.05510625 5.99995873,7.61500838 5.99995873,7.0700729 L6.00480162,5.10000619 C6.00480162,4.49002185 6.49998739,3.99995414 7.11002676,3.99995414 L16.8897531,3.99995414 C17.4999025,3.99995414 17.9951433,4.48996682 17.9951433,5.10000619 L18.0000413,7.0700729 C18.0000413,7.61500838 18.4350761,8.05510625 18.9750586,8.07002016 C19.0097294,8.08003614 19.0448954,8.08493406 19.0801714,8.08999709 C20.5302325,8.20991371 22.935169,8.40500524 22.9999427,8.40500524 C23.5497761,8.40500524 24,7.95995441 24,7.40505798 C24,7.34490705 23.9800231,7.20506853 23.9800231,7.20506853 C23.8349564,5.79000832 23.4054249,3.55512345 22.1153443,2.28997278 C20.5600053,0.765066968 16.2748158,0 11.9999175,0 Z M11.9999175,13.0000298 C10.8949124,13.0000298 9.99991286,13.8949744 9.99991286,14.9999794 C9.99991286,16.1049844 10.8949124,16.9998739 11.9999175,16.9998739 C13.1049225,16.9998739 13.999867,16.1049844 13.999867,14.9999794 C13.999867,13.8949744 13.1049225,13.0000298 11.9999175,13.0000298 Z M10.4999415,8.49993694 L10.4999415,7.24997535 C10.4999415,6.56002825 9.939872,6.00001376 9.24997994,6.00001376 C8.56008787,6.00001376 8.00001834,6.56008328 8.00001834,7.24997535 L8.00001834,8.49993694 L1.25474945,15.7050055 C0.789941826,16.1600723 0.499863564,16.7948764 0.499863564,17.4950597 L0.499863564,19.5000722 C0.499863564,20.6050772 1.39491817,21.4999668 2.49986815,21.4999668 L2.99989681,21.4999668 L2.99989681,22.7500934 C2.99989681,23.4399855 3.56002137,23.999945 4.24991344,23.999945 C4.9398055,23.999945 5.49987503,23.4399855 5.49987503,22.7500934 L5.49987503,21.4999668 L18.4999599,21.4999668 L18.4999599,22.7500934 C18.4999599,23.4399855 19.0598643,23.999945 19.7500315,23.999945 C20.4399236,23.999945 20.9998831,23.4399855 20.9998831,22.7500934 L20.9998831,21.4999668 L21.4999117,21.4999668 C22.6049167,21.4999668 23.4998613,20.6050772 23.4998613,19.5000722 L23.4998613,17.4950597 C23.4998613,16.7948214 23.209838,16.1600172 22.7449754,15.7050055 L15.9999817,8.49993694 L15.9999817,7.24997535 C15.9999817,6.56002825 15.4398021,6.00001376 14.74991,6.00001376 C14.0600179,6.00001376 13.5000034,6.56008328 13.5000034,7.24997535 L13.5000034,8.49993694 L10.4999415,8.49993694 Z M11.9999175,11.0000252 C14.2099275,11.0000252 15.9999817,12.7900244 15.9999817,14.9999794 C15.9999817,17.2099894 14.2099825,19.0000986 11.9999175,19.0000986 C9.78990743,19.0000986 7.99996331,17.2100444 7.99996331,14.9999794 C7.99996331,12.7899693 9.78990743,11.0000252 11.9999175,11.0000252 Z" id="Shape"></path>
            <path d="M48.0615234,12.2919922 C48.0615234,16.0127139 47.4633849,18.7763582 46.2670898,20.5830078 C45.0707948,22.3896575 43.2421998,23.2929688 40.78125,23.2929688 C38.3984256,23.2929688 36.591803,22.3603609 35.3613281,20.4951172 C34.1308532,18.6298735 33.515625,15.8955258 33.515625,12.2919922 C33.515625,8.51267642 34.1137635,5.72705974 35.3100586,3.93505859 C36.5063536,2.14305745 38.3300659,1.24707031 40.78125,1.24707031 C43.1738401,1.24707031 44.9853454,2.18456094 46.2158203,4.05957031 C47.4462952,5.93457969 48.0615234,8.67869287 48.0615234,12.2919922 Z M37.0019531,12.2919922 C37.0019531,15.2119287 37.3022431,17.2968688 37.902832,18.546875 C38.503421,19.7968812 39.462884,20.421875 40.78125,20.421875 C42.099616,20.421875 43.0639618,19.7871157 43.6743164,18.5175781 C44.284671,17.2480405 44.5898438,15.172866 44.5898438,12.2919922 C44.5898438,9.42088408 44.284671,7.34326814 43.6743164,6.05908203 C43.0639618,4.77489592 42.099616,4.1328125 40.78125,4.1328125 C39.462884,4.1328125 38.503421,4.76268901 37.902832,6.02246094 C37.3022431,7.28223286 37.0019531,9.37205571 37.0019531,12.2919922 Z M57.9345703,9.62597656 C60.0927842,9.62597656 61.8017515,10.1972599 63.0615234,11.3398438 C64.3212954,12.4824276 64.9511719,14.0400292 64.9511719,16.0126953 C64.9511719,18.297863 64.235847,20.0825131 62.8051758,21.3666992 C61.3745046,22.6508853 59.3408335,23.2929688 56.7041016,23.2929688 C54.3115115,23.2929688 52.4316475,22.9072304 51.0644531,22.1357422 L51.0644531,19.015625 C51.8554727,19.464846 52.7636667,19.8115222 53.7890625,20.0556641 C54.8144583,20.2998059 55.7665972,20.421875 56.6455078,20.421875 C58.19825,20.421875 59.3798788,20.0751988 60.1904297,19.3818359 C61.0009806,18.6884731 61.40625,17.6728583 61.40625,16.3349609 C61.40625,13.7763544 59.7754069,12.4970703 56.5136719,12.4970703 C56.0546852,12.4970703 55.4882846,12.5434566 54.8144531,12.6362305 C54.1406216,12.7290044 53.5498072,12.8339838 53.0419922,12.9511719 L51.5039062,12.0429688 L52.3242188,1.58398438 L63.4570312,1.58398438 L63.4570312,4.64550781 L55.3564453,4.64550781 L54.8730469,9.94824219 C55.2148455,9.88964814 55.6323218,9.82128945 56.1254883,9.74316406 C56.6186548,9.66503867 57.2216761,9.62597656 57.9345703,9.62597656 Z M81.5039062,6.50585938 C81.5039062,7.86328804 81.1084024,8.99364783 80.3173828,9.89697266 C79.5263632,10.8002975 78.4130931,11.4082016 76.9775391,11.7207031 L76.9775391,11.8378906 C78.6962977,12.0527354 79.9853473,12.5873981 80.8447266,13.4418945 C81.7041059,14.296391 82.1337891,15.4316335 82.1337891,16.8476562 C82.1337891,18.9082134 81.4062573,20.497553 79.9511719,21.6157227 C78.4960865,22.7338923 76.4257947,23.2929688 73.7402344,23.2929688 C71.3671756,23.2929688 69.3652425,22.9072304 67.734375,22.1357422 L67.734375,19.0742188 C68.6425827,19.5234397 69.6044871,19.870116 70.6201172,20.1142578 C71.6357473,20.3583997 72.6123,20.4804688 73.5498047,20.4804688 C75.2099692,20.4804688 76.4501912,20.1728546 77.2705078,19.5576172 C78.0908244,18.9423797 78.5009766,17.9902408 78.5009766,16.7011719 C78.5009766,15.558588 78.0468795,14.7187527 77.1386719,14.1816406 C76.2304642,13.6445286 74.8046972,13.3759766 72.8613281,13.3759766 L71.0009766,13.3759766 L71.0009766,10.578125 L72.890625,10.578125 C76.3086108,10.578125 78.0175781,9.39649619 78.0175781,7.03320313 C78.0175781,6.11522979 77.7197295,5.40722905 77.1240234,4.90917969 C76.5283173,4.41113032 75.6494199,4.16210938 74.4873047,4.16210938 C73.6767538,4.16210938 72.8955116,4.27685432 72.1435547,4.50634766 C71.3915978,4.73584099 70.5029348,5.18261387 69.4775391,5.84667969 L67.7929688,3.44433594 C69.7558692,1.99901621 72.0361198,1.27636719 74.6337891,1.27636719 C76.792003,1.27636719 78.4765564,1.74022974 79.6875,2.66796875 C80.8984436,3.59570776 81.5039062,4.87499185 81.5039062,6.50585938 Z M84.6533203,16.4228516 L84.6533203,13.4931641 L92.1826172,13.4931641 L92.1826172,16.4228516 L84.6533203,16.4228516 Z M109.848633,18.3271484 L106.962891,18.3271484 L106.962891,23 L103.608398,23 L103.608398,18.3271484 L93.8232422,18.3271484 L93.8232422,15.6757813 L103.608398,1.52539062 L106.962891,1.52539062 L106.962891,15.4707031 L109.848633,15.4707031 L109.848633,18.3271484 Z M103.608398,15.4707031 L103.608398,10.0947266 C103.608398,8.18065449 103.657226,6.61328735 103.754883,5.39257812 L103.637695,5.39257812 C103.364256,6.0371126 102.934573,6.81835479 102.348633,7.73632812 L97.03125,15.4707031 L103.608398,15.4707031 Z M125.405273,6.50585938 C125.405273,7.86328804 125.00977,8.99364783 124.21875,9.89697266 C123.42773,10.8002975 122.31446,11.4082016 120.878906,11.7207031 L120.878906,11.8378906 C122.597665,12.0527354 123.886714,12.5873981 124.746094,13.4418945 C125.605473,14.296391 126.035156,15.4316335 126.035156,16.8476562 C126.035156,18.9082134 125.307624,20.497553 123.852539,21.6157227 C122.397454,22.7338923 120.327162,23.2929688 117.641602,23.2929688 C115.268543,23.2929688 113.26661,22.9072304 111.635742,22.1357422 L111.635742,19.0742188 C112.54395,19.5234397 113.505854,19.870116 114.521484,20.1142578 C115.537114,20.3583997 116.513667,20.4804688 117.451172,20.4804688 C119.111336,20.4804688 120.351558,20.1728546 121.171875,19.5576172 C121.992192,18.9423797 122.402344,17.9902408 122.402344,16.7011719 C122.402344,15.558588 121.948247,14.7187527 121.040039,14.1816406 C120.131831,13.6445286 118.706064,13.3759766 116.762695,13.3759766 L114.902344,13.3759766 L114.902344,10.578125 L116.791992,10.578125 C120.209978,10.578125 121.918945,9.39649619 121.918945,7.03320313 C121.918945,6.11522979 121.621097,5.40722905 121.025391,4.90917969 C120.429685,4.41113032 119.550787,4.16210938 118.388672,4.16210938 C117.578121,4.16210938 116.796879,4.27685432 116.044922,4.50634766 C115.292965,4.73584099 114.404302,5.18261387 113.378906,5.84667969 L111.694336,3.44433594 C113.657236,1.99901621 115.937487,1.27636719 118.535156,1.27636719 C120.69337,1.27636719 122.377924,1.74022974 123.588867,2.66796875 C124.799811,3.59570776 125.405273,4.87499185 125.405273,6.50585938 Z M138.925781,23 L135.483398,23 L135.483398,9.171875 C135.483398,7.52147612 135.522461,6.21289546 135.600586,5.24609375 C135.375975,5.48046992 135.100099,5.7392564 134.772949,6.02246094 C134.445799,6.30566548 133.349619,7.20409399 131.484375,8.71777344 L129.755859,6.53515625 L136.054688,1.58398438 L138.925781,1.58398438 L138.925781,23 Z M145.678711,16.4228516 L145.678711,13.4931641 L153.208008,13.4931641 L153.208008,16.4228516 L145.678711,16.4228516 Z M169.306641,6.50585938 C169.306641,7.86328804 168.911137,8.99364783 168.120117,9.89697266 C167.329098,10.8002975 166.215827,11.4082016 164.780273,11.7207031 L164.780273,11.8378906 C166.499032,12.0527354 167.788082,12.5873981 168.647461,13.4418945 C169.50684,14.296391 169.936523,15.4316335 169.936523,16.8476562 C169.936523,18.9082134 169.208992,20.497553 167.753906,21.6157227 C166.298821,22.7338923 164.228529,23.2929688 161.542969,23.2929688 C159.16991,23.2929688 157.167977,22.9072304 155.537109,22.1357422 L155.537109,19.0742188 C156.445317,19.5234397 157.407221,19.870116 158.422852,20.1142578 C159.438482,20.3583997 160.415034,20.4804688 161.352539,20.4804688 C163.012704,20.4804688 164.252926,20.1728546 165.073242,19.5576172 C165.893559,18.9423797 166.303711,17.9902408 166.303711,16.7011719 C166.303711,15.558588 165.849614,14.7187527 164.941406,14.1816406 C164.033199,13.6445286 162.607432,13.3759766 160.664062,13.3759766 L158.803711,13.3759766 L158.803711,10.578125 L160.693359,10.578125 C164.111345,10.578125 165.820312,9.39649619 165.820312,7.03320313 C165.820312,6.11522979 165.522464,5.40722905 164.926758,4.90917969 C164.331052,4.41113032 163.452154,4.16210938 162.290039,4.16210938 C161.479488,4.16210938 160.698246,4.27685432 159.946289,4.50634766 C159.194332,4.73584099 158.305669,5.18261387 157.280273,5.84667969 L155.595703,3.44433594 C157.558604,1.99901621 159.838854,1.27636719 162.436523,1.27636719 C164.594737,1.27636719 166.279291,1.74022974 167.490234,2.66796875 C168.701178,3.59570776 169.306641,4.87499185 169.306641,6.50585938 Z M187.998047,18.3271484 L185.112305,18.3271484 L185.112305,23 L181.757812,23 L181.757812,18.3271484 L171.972656,18.3271484 L171.972656,15.6757813 L181.757812,1.52539062 L185.112305,1.52539062 L185.112305,15.4707031 L187.998047,15.4707031 L187.998047,18.3271484 Z M181.757812,15.4707031 L181.757812,10.0947266 C181.757812,8.18065449 181.80664,6.61328735 181.904297,5.39257812 L181.787109,5.39257812 C181.513671,6.0371126 181.083987,6.81835479 180.498047,7.73632812 L175.180664,15.4707031 L181.757812,15.4707031 Z M197.080078,1.30566406 C199.111338,1.30566406 200.717768,1.77196799 201.899414,2.70458984 C203.081061,3.63721169 203.671875,4.88475781 203.671875,6.44726562 C203.671875,8.64454224 202.353529,10.3925716 199.716797,11.6914062 C201.396493,12.5312542 202.590328,13.4150344 203.29834,14.3427734 C204.006351,15.2705125 204.360352,16.3056583 204.360352,17.4482422 C204.360352,19.2158292 203.710944,20.6318306 202.412109,21.6962891 C201.113275,22.7607475 199.35548,23.2929688 197.138672,23.2929688 C194.814442,23.2929688 193.012702,22.7949269 191.733398,21.7988281 C190.454095,20.8027294 189.814453,19.3916107 189.814453,17.5654297 C189.814453,16.3740175 190.148922,15.3022509 190.817871,14.3500977 C191.48682,13.3979445 192.583,12.550785 194.106445,11.8085938 C192.797845,11.0273398 191.865237,10.2021528 191.308594,9.33300781 C190.75195,8.46386284 190.473633,7.48731011 190.473633,6.40332031 C190.473633,4.85057817 191.083978,3.61279758 192.304688,2.68994141 C193.525397,1.76708523 195.117178,1.30566406 197.080078,1.30566406 Z M193.110352,17.4482422 C193.110352,18.4638723 193.466793,19.2524386 194.179688,19.8139648 C194.892582,20.3754911 195.859369,20.65625 197.080078,20.65625 C198.33985,20.65625 199.318844,20.3657256 200.01709,19.784668 C200.715336,19.2036104 201.064453,18.415044 201.064453,17.4189453 C201.064453,16.6279257 200.742191,15.9052767 200.097656,15.2509766 C199.453122,14.5966764 198.476569,13.9912137 197.167969,13.4345703 L196.743164,13.2441406 C195.454095,13.8105497 194.52637,14.4331021 193.959961,15.1118164 C193.393552,15.7905307 193.110352,16.5693315 193.110352,17.4482422 Z M197.050781,3.95703125 C196.074214,3.95703125 195.288089,4.19872805 194.692383,4.68212891 C194.096677,5.16552976 193.798828,5.82226147 193.798828,6.65234375 C193.798828,7.16015879 193.906249,7.61425581 194.121094,8.01464844 C194.335939,8.41504106 194.648435,8.77880696 195.058594,9.10595703 C195.468752,9.4331071 196.162104,9.82616958 197.138672,10.2851562 C198.310553,9.76757554 199.138181,9.22314739 199.621582,8.65185547 C200.104983,8.08056355 200.34668,7.41406631 200.34668,6.65234375 C200.34668,5.82226147 200.04639,5.16552976 199.445801,4.68212891 C198.845212,4.19872805 198.04688,3.95703125 197.050781,3.95703125 Z M221.484375,12.2919922 C221.484375,16.0127139 220.886236,18.7763582 219.689941,20.5830078 C218.493646,22.3896575 216.665051,23.2929688 214.204102,23.2929688 C211.821277,23.2929688 210.014655,22.3603609 208.78418,20.4951172 C207.553705,18.6298735 206.938477,15.8955258 206.938477,12.2919922 C206.938477,8.51267642 207.536615,5.72705974 208.73291,3.93505859 C209.929205,2.14305745 211.752917,1.24707031 214.204102,1.24707031 C216.596692,1.24707031 218.408197,2.18456094 219.638672,4.05957031 C220.869147,5.93457969 221.484375,8.67869287 221.484375,12.2919922 Z M210.424805,12.2919922 C210.424805,15.2119287 210.725095,17.2968688 211.325684,18.546875 C211.926273,19.7968812 212.885736,20.421875 214.204102,20.421875 C215.522468,20.421875 216.486813,19.7871157 217.097168,18.5175781 C217.707523,17.2480405 218.012695,15.172866 218.012695,12.2919922 C218.012695,9.42088408 217.707523,7.34326814 217.097168,6.05908203 C216.486813,4.77489592 215.522468,4.1328125 214.204102,4.1328125 C212.885736,4.1328125 211.926273,4.76268901 211.325684,6.02246094 C210.725095,7.28223286 210.424805,9.37205571 210.424805,12.2919922 Z" id="053-431-3480"></path>
            <path d="M2.112,31.48 L2.904,31.48 C2.7,31.06 2.496,30.736 2.136,30.268 L3.456,29.992 C3.816,30.496 4.116,31 4.356,31.48 L5.46,31.48 C5.316,31.096 5.04,30.544 4.788,30.1 L6.132,29.884 C6.372,30.34 6.684,31 6.864,31.48 L7.728,31.48 C8.052,31.012 8.364,30.424 8.58,29.872 L9.972,30.184 C9.768,30.556 9.408,31.144 9.18,31.48 L9.9,31.48 C10.5,31.48 10.812,31.468 11.184,31.432 C11.148,31.744 11.148,32.02 11.148,32.5 L11.148,33.46 C11.148,33.856 11.16,34.084 11.196,34.408 L9.876,34.408 L9.876,32.596 L2.148,32.596 L2.148,34.408 L0.828,34.408 C0.864,34.096 0.888,33.808 0.888,33.472 L0.888,32.524 C0.888,32.104 0.876,31.828 0.84,31.432 C1.236,31.468 1.572,31.48 2.112,31.48 Z M5.124,36.292 L3.816,36.292 C3.156,36.292 2.94,36.304 2.556,36.34 C2.592,36.028 2.604,35.788 2.604,35.26 L2.604,34.12 C2.604,33.724 2.592,33.436 2.556,33.208 C2.82,33.244 3.096,33.256 3.468,33.256 L8.58,33.256 C8.928,33.256 9.204,33.244 9.456,33.208 C9.42,33.4 9.42,33.676 9.42,34.156 L9.42,35.26 C9.42,35.896 9.42,36.064 9.456,36.34 C9.06,36.304 8.76,36.292 8.196,36.292 L6.492,36.292 C6.36,36.616 6.252,36.832 6.084,37.144 L9.276,37.144 C9.84,37.144 10.116,37.132 10.416,37.096 C10.38,37.396 10.368,37.672 10.368,38.248 L10.368,39.808 C10.368,40.36 10.38,40.636 10.428,40.984 L9.072,40.984 L9.072,40.516 L2.916,40.516 L2.916,40.984 L1.584,40.984 C1.62,40.576 1.644,40.204 1.644,39.796 L1.644,38.236 C1.644,37.696 1.62,37.432 1.584,37.096 C1.896,37.132 2.184,37.144 2.7,37.144 L4.68,37.144 C4.872,36.844 5.004,36.592 5.124,36.292 Z M3.852,34.264 L3.852,35.284 L8.16,35.284 L8.16,34.264 L3.852,34.264 Z M2.916,38.2 L2.916,39.364 L9.084,39.364 L9.084,38.2 L2.916,38.2 Z M17.28,34.72 L14.28,34.72 C13.728,34.72 13.416,34.732 13.044,34.78 L13.044,33.64 C13.38,33.676 13.692,33.688 14.28,33.688 L15.732,33.688 C15.552,33.304 15.42,33.028 15.288,32.8 L13.992,32.8 C13.404,32.8 12.948,32.824 12.564,32.86 L12.564,31.66 C12.936,31.708 13.32,31.732 13.932,31.732 L14.316,31.732 C14.088,31.312 13.944,31.12 13.5,30.616 L14.7,30.16 C15.108,30.724 15.276,31.012 15.624,31.732 L16.308,31.732 L16.308,30.88 C16.308,30.52 16.284,30.184 16.248,29.944 L17.556,29.944 C17.532,30.16 17.52,30.424 17.52,30.832 L17.52,31.732 L18.372,31.732 L18.372,30.832 C18.372,30.448 18.36,30.172 18.336,29.944 L19.644,29.944 C19.608,30.172 19.584,30.496 19.584,30.88 L19.584,31.732 L20.34,31.732 C20.76,31.132 20.988,30.712 21.204,30.124 L22.44,30.58 C22.152,31.06 21.96,31.36 21.696,31.732 L22.032,31.732 C22.656,31.732 23.028,31.708 23.388,31.66 L23.388,32.86 C23.016,32.824 22.548,32.8 21.96,32.8 L20.76,32.8 C20.532,33.28 20.484,33.388 20.316,33.688 L21.708,33.688 C22.296,33.688 22.596,33.676 22.944,33.64 L22.944,34.78 C22.572,34.732 22.272,34.72 21.708,34.72 L18.576,34.72 L18.576,35.296 L21.084,35.296 C21.624,35.296 21.984,35.284 22.32,35.236 L22.32,36.316 C21.984,36.268 21.612,36.256 21.084,36.256 L18.576,36.256 L18.576,36.856 L21.924,36.856 C22.608,36.856 23.028,36.832 23.376,36.784 L23.376,37.984 C22.932,37.936 22.488,37.912 21.936,37.912 L19.524,37.912 C19.932,38.26 20.472,38.584 21.156,38.872 C21.924,39.196 22.548,39.364 23.652,39.556 C23.316,40.012 23.172,40.276 22.968,40.78 C20.952,40.228 19.596,39.496 18.516,38.404 C18.552,38.86 18.552,38.968 18.552,39.256 L18.552,39.844 C18.552,40.348 18.576,40.72 18.636,41.056 L17.22,41.056 C17.268,40.708 17.292,40.312 17.292,39.832 L17.292,39.256 C17.292,38.98 17.292,38.932 17.328,38.44 C16.764,39.016 16.32,39.364 15.6,39.76 C14.832,40.18 14.1,40.492 13.152,40.768 C12.96,40.348 12.732,39.988 12.42,39.616 C14.172,39.244 15.384,38.716 16.344,37.912 L14.112,37.912 C13.548,37.912 13.116,37.936 12.66,37.984 L12.66,36.784 C13.044,36.832 13.452,36.856 14.1,36.856 L17.28,36.856 L17.28,36.256 L14.904,36.256 C14.376,36.256 14.016,36.268 13.68,36.316 L13.68,35.236 C14.016,35.284 14.364,35.296 14.904,35.296 L17.28,35.296 L17.28,34.72 Z M17.004,33.688 L18.984,33.688 C19.164,33.34 19.26,33.124 19.38,32.8 L16.644,32.8 C16.812,33.16 16.884,33.34 17.004,33.688 Z M31.308,32.368 L30.288,32.368 C29.292,32.392 29.292,32.392 29.004,32.428 L29.004,31.156 C29.34,31.204 29.724,31.228 30.252,31.228 L31.308,31.228 L31.308,30.904 C31.308,30.568 31.284,30.304 31.236,30.004 L32.616,30.004 C32.58,30.28 32.556,30.532 32.556,30.904 L32.556,31.228 L33.864,31.228 C34.38,31.228 34.776,31.204 35.112,31.156 L35.112,32.428 C34.776,32.38 34.416,32.368 33.876,32.368 L32.556,32.368 L32.556,33.508 L34.212,33.508 C34.788,33.508 35.22,33.484 35.52,33.436 L35.52,34.708 C35.196,34.66 34.872,34.648 34.344,34.648 L34.14,34.648 L34.14,35.668 L34.296,35.668 C34.872,35.668 35.196,35.656 35.484,35.608 L35.484,36.916 C35.136,36.856 34.836,36.844 34.296,36.844 L34.14,36.844 L34.14,39.556 C34.14,40.252 34.02,40.54 33.66,40.708 C33.36,40.84 32.94,40.9 32.34,40.9 C32.232,40.9 32.232,40.9 31.404,40.888 C31.38,40.372 31.296,40.012 31.116,39.628 C31.416,39.676 32.04,39.724 32.46,39.724 C32.832,39.724 32.904,39.664 32.904,39.4 L32.904,36.844 L30.036,36.844 C29.592,36.844 29.136,36.868 28.752,36.916 L28.752,35.608 C29.064,35.656 29.436,35.668 30.06,35.668 L32.904,35.668 L32.904,34.648 L30.06,34.648 C29.556,34.648 29.112,34.672 28.74,34.708 L28.74,33.436 C29.04,33.484 29.496,33.508 30.072,33.508 L31.308,33.508 L31.308,32.368 Z M24.96,38.788 L24.96,31.768 C24.96,31.228 24.948,30.916 24.912,30.556 C25.176,30.58 25.404,30.592 25.968,30.592 L27.42,30.592 C27.96,30.592 28.176,30.58 28.464,30.556 C28.428,30.832 28.428,31.048 28.428,31.744 L28.428,38.608 C28.428,39.244 28.44,39.508 28.464,39.808 L27.24,39.808 L27.24,39.208 L26.148,39.208 L26.148,40.216 L24.888,40.216 C24.936,39.844 24.96,39.424 24.96,38.788 Z M26.16,31.732 L26.16,34.24 L27.24,34.24 L27.24,31.732 L26.16,31.732 Z M26.16,35.344 L26.16,38.044 L27.24,38.044 L27.24,35.344 L26.16,35.344 Z M31.812,38.824 L30.756,39.628 C30.276,38.824 29.82,38.248 29.22,37.66 L30.24,36.988 C30.828,37.516 31.308,38.068 31.812,38.824 Z M44.388,36.088 L44.388,38.524 C44.388,38.98 44.4,39.256 44.424,39.568 C44.688,39.592 45.12,39.628 45.336,39.628 C45.672,39.628 45.78,39.544 45.78,39.304 L45.78,34.288 L43.416,34.288 C42.996,34.288 42.612,34.3 42.312,34.324 C42.336,33.976 42.348,33.748 42.348,33.232 L42.348,31.396 C42.348,30.988 42.336,30.652 42.312,30.28 C42.636,30.316 42.924,30.328 43.536,30.328 L45.84,30.328 C46.44,30.328 46.74,30.316 47.076,30.28 C47.04,30.712 47.028,31.012 47.028,31.612 L47.028,39.472 C47.028,40.192 46.884,40.504 46.452,40.684 C46.2,40.792 45.84,40.828 45.096,40.828 C44.928,40.828 44.88,40.828 44.268,40.792 C44.196,40.252 44.136,40.036 43.956,39.556 C43.608,39.544 43.38,39.544 43.284,39.544 L40.74,39.544 L40.74,40.216 L39.468,40.216 C39.516,39.928 39.552,39.448 39.552,39.016 L39.552,36.088 C39.552,35.668 39.54,35.332 39.516,35.008 C39.864,35.044 40.14,35.056 40.632,35.056 L43.308,35.056 C43.812,35.056 44.076,35.044 44.424,35.008 C44.4,35.32 44.388,35.62 44.388,36.088 Z M43.536,31.3 L43.536,31.9 L45.78,31.9 L45.78,31.3 L43.536,31.3 Z M43.536,32.752 L43.536,33.364 L45.78,33.364 L45.78,32.752 L43.536,32.752 Z M40.74,36.064 L40.74,36.784 L43.188,36.784 L43.188,36.064 L40.74,36.064 Z M40.74,37.756 L40.74,38.536 L43.188,38.536 L43.188,37.756 L40.74,37.756 Z M38.232,34.288 L38.232,39.472 C38.232,40.192 38.256,40.624 38.304,40.948 L36.9,40.948 C36.948,40.588 36.972,40.204 36.972,39.46 L36.972,31.624 C36.972,31 36.96,30.664 36.924,30.28 C37.26,30.316 37.572,30.328 38.16,30.328 L40.284,30.328 C40.908,30.328 41.184,30.316 41.508,30.28 C41.484,30.664 41.472,30.928 41.472,31.396 L41.472,33.232 C41.472,33.784 41.484,34.06 41.508,34.324 C41.196,34.3 40.824,34.288 40.404,34.288 L38.232,34.288 Z M38.232,31.3 L38.232,31.9 L40.296,31.9 L40.296,31.3 L38.232,31.3 Z M38.232,32.752 L38.232,33.364 L40.296,33.364 L40.296,32.752 L38.232,32.752 Z M62.676,35.14 C62.172,35.008 61.86,34.828 61.512,34.48 C61.14,34.096 60.924,33.508 60.924,32.896 C60.924,31.36 62.22,30.388 64.272,30.388 C65.724,30.388 66.792,30.856 67.308,31.696 C67.512,32.032 67.632,32.464 67.632,32.896 C67.632,34.012 66.996,34.828 65.904,35.14 C66.444,35.212 66.804,35.368 67.2,35.704 C67.764,36.16 68.04,36.784 68.04,37.576 C68.04,39.364 66.696,40.348 64.236,40.348 C62.844,40.348 61.884,40.048 61.2,39.388 C60.756,38.956 60.504,38.308 60.504,37.588 C60.504,36.748 60.828,36.088 61.488,35.62 C61.884,35.344 62.184,35.224 62.676,35.14 Z M64.272,31.684 C63.216,31.684 62.532,32.224 62.532,33.064 C62.532,33.94 63.204,34.492 64.296,34.492 C65.364,34.492 66.012,33.952 66.012,33.076 C66.012,32.224 65.34,31.684 64.272,31.684 Z M64.248,39.028 C65.592,39.028 66.348,38.464 66.348,37.456 C66.348,36.46 65.568,35.86 64.272,35.86 C62.976,35.86 62.184,36.472 62.184,37.468 C62.184,38.452 62.952,39.028 64.248,39.028 Z M69.288,33.256 L69.288,35.008 L71.04,35.008 L71.04,33.256 L69.288,33.256 Z M69.288,38.392 L69.288,40.144 L71.04,40.144 L71.04,38.392 L69.288,38.392 Z M76.044,40.336 C75.024,40.336 74.16,40 73.524,39.364 C73.164,39.004 72.888,38.584 72.732,38.152 C72.42,37.3 72.264,36.364 72.264,35.392 C72.264,34.12 72.552,32.8 72.996,32.068 C73.644,30.988 74.724,30.4 76.056,30.4 C77.076,30.4 77.952,30.736 78.588,31.372 C78.948,31.732 79.224,32.152 79.38,32.584 C79.692,33.424 79.848,34.384 79.848,35.368 C79.848,36.844 79.524,38.14 78.96,38.92 C78.288,39.856 77.292,40.336 76.044,40.336 Z M76.056,38.944 C76.584,38.944 77.052,38.764 77.352,38.44 C77.892,37.876 78.192,36.76 78.192,35.356 C78.192,33.964 77.892,32.872 77.352,32.284 C77.064,31.96 76.584,31.78 76.044,31.78 C75.468,31.78 75.048,31.972 74.7,32.392 C74.172,33.016 73.908,34 73.908,35.308 C73.908,36.568 74.136,37.612 74.52,38.164 C74.892,38.692 75.396,38.944 76.056,38.944 Z M84.588,40.336 C83.568,40.336 82.704,40 82.068,39.364 C81.708,39.004 81.432,38.584 81.276,38.152 C80.964,37.3 80.808,36.364 80.808,35.392 C80.808,34.12 81.096,32.8 81.54,32.068 C82.188,30.988 83.268,30.4 84.6,30.4 C85.62,30.4 86.496,30.736 87.132,31.372 C87.492,31.732 87.768,32.152 87.924,32.584 C88.236,33.424 88.392,34.384 88.392,35.368 C88.392,36.844 88.068,38.14 87.504,38.92 C86.832,39.856 85.836,40.336 84.588,40.336 Z M84.6,38.944 C85.128,38.944 85.596,38.764 85.896,38.44 C86.436,37.876 86.736,36.76 86.736,35.356 C86.736,33.964 86.436,32.872 85.896,32.284 C85.608,31.96 85.128,31.78 84.588,31.78 C84.012,31.78 83.592,31.972 83.244,32.392 C82.716,33.016 82.452,34 82.452,35.308 C82.452,36.568 82.68,37.612 83.064,38.164 C83.436,38.692 83.94,38.944 84.6,38.944 Z M93.276,37.3 C93.672,37.24 93.936,37.228 94.404,37.228 L96.264,37.228 C96.756,37.228 97.008,37.24 97.404,37.3 L97.404,35.704 C97.056,35.752 96.756,35.776 96.264,35.776 L94.404,35.776 C93.924,35.776 93.624,35.752 93.276,35.704 L93.276,37.3 Z M107.184,40.144 C107.112,39.652 107.088,39.22 107.088,38.584 L107.088,32.512 C107.088,31.792 107.112,31.24 107.184,30.532 C106.752,30.58 106.572,30.592 105.96,30.592 L104.856,30.592 C104.292,30.592 104.028,30.58 103.656,30.52 L103.656,32.044 C104.1,31.996 104.448,31.972 104.892,31.972 L105.468,31.972 L105.468,38.584 C105.468,39.208 105.444,39.676 105.372,40.144 L107.184,40.144 Z M113.028,35.14 C112.524,35.008 112.212,34.828 111.864,34.48 C111.492,34.096 111.276,33.508 111.276,32.896 C111.276,31.36 112.572,30.388 114.624,30.388 C116.076,30.388 117.144,30.856 117.66,31.696 C117.864,32.032 117.984,32.464 117.984,32.896 C117.984,34.012 117.348,34.828 116.256,35.14 C116.796,35.212 117.156,35.368 117.552,35.704 C118.116,36.16 118.392,36.784 118.392,37.576 C118.392,39.364 117.048,40.348 114.588,40.348 C113.196,40.348 112.236,40.048 111.552,39.388 C111.108,38.956 110.856,38.308 110.856,37.588 C110.856,36.748 111.18,36.088 111.84,35.62 C112.236,35.344 112.536,35.224 113.028,35.14 Z M114.624,31.684 C113.568,31.684 112.884,32.224 112.884,33.064 C112.884,33.94 113.556,34.492 114.648,34.492 C115.716,34.492 116.364,33.952 116.364,33.076 C116.364,32.224 115.692,31.684 114.624,31.684 Z M114.6,39.028 C115.944,39.028 116.7,38.464 116.7,37.456 C116.7,36.46 115.92,35.86 114.624,35.86 C113.328,35.86 112.536,36.472 112.536,37.468 C112.536,38.452 113.304,39.028 114.6,39.028 Z M119.64,33.256 L119.64,35.008 L121.392,35.008 L121.392,33.256 L119.64,33.256 Z M119.64,38.392 L119.64,40.144 L121.392,40.144 L121.392,38.392 L119.64,38.392 Z M126.396,40.336 C125.376,40.336 124.512,40 123.876,39.364 C123.516,39.004 123.24,38.584 123.084,38.152 C122.772,37.3 122.616,36.364 122.616,35.392 C122.616,34.12 122.904,32.8 123.348,32.068 C123.996,30.988 125.076,30.4 126.408,30.4 C127.428,30.4 128.304,30.736 128.94,31.372 C129.3,31.732 129.576,32.152 129.732,32.584 C130.044,33.424 130.2,34.384 130.2,35.368 C130.2,36.844 129.876,38.14 129.312,38.92 C128.64,39.856 127.644,40.336 126.396,40.336 Z M126.408,38.944 C126.936,38.944 127.404,38.764 127.704,38.44 C128.244,37.876 128.544,36.76 128.544,35.356 C128.544,33.964 128.244,32.872 127.704,32.284 C127.416,31.96 126.936,31.78 126.396,31.78 C125.82,31.78 125.4,31.972 125.052,32.392 C124.524,33.016 124.26,34 124.26,35.308 C124.26,36.568 124.488,37.612 124.872,38.164 C125.244,38.692 125.748,38.944 126.408,38.944 Z M134.94,40.336 C133.92,40.336 133.056,40 132.42,39.364 C132.06,39.004 131.784,38.584 131.628,38.152 C131.316,37.3 131.16,36.364 131.16,35.392 C131.16,34.12 131.448,32.8 131.892,32.068 C132.54,30.988 133.62,30.4 134.952,30.4 C135.972,30.4 136.848,30.736 137.484,31.372 C137.844,31.732 138.12,32.152 138.276,32.584 C138.588,33.424 138.744,34.384 138.744,35.368 C138.744,36.844 138.42,38.14 137.856,38.92 C137.184,39.856 136.188,40.336 134.94,40.336 Z M134.952,38.944 C135.48,38.944 135.948,38.764 136.248,38.44 C136.788,37.876 137.088,36.76 137.088,35.356 C137.088,33.964 136.788,32.872 136.248,32.284 C135.96,31.96 135.48,31.78 134.94,31.78 C134.364,31.78 133.944,31.972 133.596,32.392 C133.068,33.016 132.804,34 132.804,35.308 C132.804,36.568 133.032,37.612 133.416,38.164 C133.788,38.692 134.292,38.944 134.952,38.944 Z M150.876,41.068 C150.024,40 149.688,39.472 149.352,38.68 C148.92,37.684 148.716,36.604 148.716,35.392 C148.716,34.216 148.92,33.196 149.34,32.212 C149.676,31.42 150.024,30.88 150.864,29.824 L149.184,29.824 C148.5,30.784 148.212,31.312 147.864,32.188 C147.444,33.268 147.252,34.264 147.252,35.392 C147.252,36.544 147.456,37.6 147.888,38.704 C148.224,39.58 148.524,40.108 149.196,41.068 L150.876,41.068 Z M156.444,33.556 L154.272,33.556 C153.624,33.556 153.132,33.532 152.712,33.484 L152.712,34.888 C153.168,34.84 153.636,34.816 154.272,34.816 L156.444,34.816 L156.444,39.16 L153.54,39.16 C152.82,39.16 152.268,39.136 151.824,39.088 L151.824,40.516 C152.304,40.456 152.856,40.432 153.54,40.432 L160.98,40.432 C161.652,40.432 162.18,40.456 162.66,40.516 L162.66,39.088 C162.228,39.136 161.664,39.16 160.98,39.16 L157.836,39.16 L157.836,34.816 L160.224,34.816 C160.86,34.816 161.304,34.84 161.772,34.888 L161.772,33.484 C161.316,33.532 160.908,33.556 160.224,33.556 L157.836,33.556 L157.836,31.384 C157.836,30.844 157.86,30.412 157.92,29.98 L156.36,29.98 C156.42,30.424 156.444,30.868 156.444,31.384 L156.444,33.556 Z M169.224,34.012 C168.432,34.012 167.796,34.648 167.796,35.44 C167.796,36.232 168.432,36.868 169.224,36.868 C170.016,36.868 170.652,36.232 170.652,35.44 C170.652,34.648 170.016,34.012 169.224,34.012 Z M177.06,39.412 L177.06,31.72 C177.06,31.252 177.036,30.832 177,30.436 C177.384,30.484 177.78,30.496 178.332,30.496 L184.14,30.496 C184.704,30.496 185.076,30.484 185.436,30.436 C185.388,30.892 185.376,31.24 185.376,31.66 L185.376,39.412 C185.376,40.036 185.4,40.432 185.448,40.864 L183.996,40.864 L183.996,40.144 L178.416,40.144 L178.416,40.864 L176.988,40.864 C177.036,40.456 177.06,39.976 177.06,39.412 Z M178.416,31.768 L178.416,34.552 L183.996,34.552 L183.996,31.768 L178.416,31.768 Z M178.416,35.812 L178.416,38.884 L183.996,38.884 L183.996,35.812 L178.416,35.812 Z M196.176,38.92 L196.176,39.532 L197.568,39.532 C198.132,39.532 198.42,39.52 198.732,39.472 L198.732,40.624 C198.348,40.588 197.928,40.564 197.412,40.564 L193.344,40.564 L193.344,41.02 L192.084,41.02 C192.132,40.672 192.156,40.312 192.156,39.7 L192.156,38.068 C192.156,37.84 192.156,37.48 192.18,36.964 C191.964,37.252 191.856,37.384 191.64,37.576 C191.52,37.312 191.508,37.276 191.268,36.868 L191.268,38.524 C191.268,39.112 191.268,39.244 191.292,39.58 L190.176,39.58 L190.176,38.992 L189.192,38.992 L189.192,39.892 L188.04,39.892 C188.088,39.472 188.112,38.992 188.112,38.32 L188.112,32.02 C188.112,31.312 188.1,31.036 188.064,30.628 C188.352,30.664 188.58,30.676 189.072,30.676 L190.26,30.676 C190.704,30.676 191.016,30.664 191.292,30.64 C191.268,30.868 191.268,30.868 191.268,31.912 L191.268,36.388 C191.952,35.776 192.528,34.924 192.804,34.108 L192.456,34.108 C192.096,34.108 191.88,34.12 191.628,34.156 L191.628,33.172 C191.856,33.196 192.036,33.208 192.456,33.208 L193.728,33.208 L193.728,32.656 L192.696,32.656 C192.324,32.656 192.024,32.668 191.784,32.692 L191.784,31.732 C192.036,31.768 192.264,31.78 192.696,31.78 L193.728,31.78 L193.728,31.252 L192.468,31.252 C192.144,31.252 191.916,31.264 191.664,31.3 L191.664,30.256 C191.964,30.292 192.252,30.304 192.624,30.304 L193.944,30.304 C194.376,30.304 194.628,30.292 194.868,30.268 C194.844,30.472 194.844,30.472 194.844,31.276 L194.844,33.112 C194.868,33.988 194.868,33.988 194.88,34.132 C194.52,34.108 194.364,34.108 193.968,34.108 L193.092,34.108 L193.944,34.432 C193.824,34.684 193.752,34.804 193.632,34.972 L195.072,34.972 C195.336,34.6 195.456,34.396 195.564,34.12 C195.372,34.12 195.324,34.132 195.18,34.144 L195.18,33.172 C195.396,33.196 195.576,33.208 196.02,33.208 L197.304,33.208 L197.304,32.656 L196.26,32.656 C195.888,32.656 195.588,32.668 195.324,32.692 L195.324,31.732 C195.576,31.768 195.828,31.78 196.26,31.78 L197.304,31.78 L197.304,31.252 L196.02,31.252 C195.696,31.252 195.444,31.264 195.192,31.3 L195.192,30.256 C195.492,30.292 195.78,30.304 196.152,30.304 L197.52,30.304 C197.964,30.304 198.216,30.292 198.456,30.268 C198.432,30.52 198.432,30.796 198.432,31.24 L198.432,33.136 C198.432,33.676 198.432,33.928 198.456,34.144 C198.096,34.12 197.904,34.108 197.472,34.108 L195.84,34.108 L196.692,34.408 C196.44,34.792 196.44,34.792 196.296,34.972 L197.52,34.972 C198.084,34.972 198.312,34.96 198.552,34.924 L198.552,36.016 C198.276,35.98 197.988,35.968 197.532,35.968 L196.176,35.968 L196.176,36.556 L197.22,36.556 C197.784,36.556 198,36.544 198.228,36.508 L198.228,37.492 C198,37.456 197.736,37.444 197.22,37.444 L196.176,37.444 L196.176,38.032 L197.232,38.032 C197.784,38.032 198.012,38.02 198.24,37.996 L198.24,38.968 C197.976,38.932 197.76,38.92 197.232,38.92 L196.176,38.92 Z M193.344,36.556 L195.036,36.556 L195.036,35.968 L193.344,35.968 L193.344,36.556 Z M193.344,37.444 L193.344,38.032 L195.036,38.032 L195.036,37.444 L193.344,37.444 Z M193.344,38.92 L193.344,39.532 L195.036,39.532 L195.036,38.92 L193.344,38.92 Z M189.204,31.828 L189.204,34.216 L190.188,34.216 L190.188,31.828 L189.204,31.828 Z M189.204,35.308 L189.204,37.852 L190.188,37.852 L190.188,35.308 L189.204,35.308 Z M202.188,38.284 C202.512,38.608 202.656,38.812 202.968,39.376 C204.3,38.152 205.104,36.988 205.848,35.188 C205.836,35.584 205.824,36.052 205.824,36.448 L205.824,39.64 C205.824,40.084 205.788,40.564 205.74,40.972 L207.18,40.972 C207.12,40.564 207.108,40.18 207.108,39.628 L207.108,36.28 C207.108,35.776 207.096,35.452 207.072,35.068 C207.492,36.112 207.912,36.856 208.644,37.804 C209.088,38.38 209.412,38.728 210.132,39.388 C210.408,38.86 210.624,38.56 211.02,38.092 C210.168,37.42 209.508,36.76 208.872,35.932 C208.272,35.14 207.972,34.624 207.504,33.532 L209.388,33.532 C209.856,33.532 210.324,33.556 210.708,33.604 L210.708,32.2 C210.312,32.248 209.832,32.272 209.352,32.272 L207.12,32.272 L207.12,31.144 C207.12,30.712 207.132,30.364 207.192,29.98 L205.752,29.98 C205.812,30.376 205.836,30.736 205.836,31.144 L205.836,32.272 L204.06,32.272 C203.592,32.272 203.124,32.248 202.764,32.212 L202.764,33.604 C203.16,33.556 203.64,33.532 204.06,33.532 L205.428,33.532 C204.816,35.188 203.592,36.916 202.188,38.08 L202.188,32.992 C202.536,32.248 202.692,31.9 202.992,31.036 C203.124,30.676 203.184,30.532 203.328,30.172 L201.96,29.764 C201.828,30.496 201.624,31.108 201.264,31.9 C200.772,33.004 200.208,33.844 199.392,34.708 C199.62,35.164 199.776,35.584 199.932,36.172 C200.376,35.656 200.568,35.404 200.904,34.84 C200.88,35.332 200.88,35.584 200.88,36.184 L200.88,39.556 C200.88,40.144 200.856,40.504 200.808,40.96 L202.248,40.96 C202.2,40.528 202.188,40.084 202.188,39.568 L202.188,38.284 Z M213.264,41.068 C213.936,40.108 214.224,39.58 214.572,38.704 C214.992,37.6 215.196,36.556 215.196,35.392 C215.196,34.252 215.004,33.28 214.584,32.188 C214.236,31.3 213.948,30.772 213.276,29.824 L211.584,29.824 C212.424,30.88 212.772,31.42 213.12,32.212 C213.54,33.196 213.732,34.192 213.732,35.392 C213.732,36.616 213.528,37.684 213.096,38.68 C212.76,39.472 212.424,40 211.572,41.068 L213.264,41.068 Z" id="営業時間-8:00---18:00（土・"></path>
        </g>
    </g>
</svg>